<svg id="Layer_1" data-name="Layer 1" xmlns="http://www.w3.org/2000/svg" viewBox="0 0 158.32 158.32"><defs><style>.cls-1{fill:#55bdca;}</style></defs><title>arrow-up</title><path id="up" class="cls-1" d="M.83,80A79.16,79.16,0,1,1,80,159.14,79.16,79.16,0,0,1,.83,80ZM46.66,89.2,69.77,65.1v58.28a7.63,7.63,0,0,0,7.6,7.66h5.16a7.64,7.64,0,0,0,7.66-7.6V65.1l23.1,24.1a7.68,7.68,0,0,0,10.85.23.94.94,0,0,1,.1-.1l3.48-3.5a7.64,7.64,0,0,0,0-10.79l0,0L85.4,32.64a7.63,7.63,0,0,0-10.79,0h0L32.2,75a7.64,7.64,0,0,0,0,10.79l0,0,3.48,3.49a7.71,7.71,0,0,0,10.9,0l.08-.09Z" transform="translate(-0.83 -0.82)"/></svg>