<svg id="Layer_1" data-name="Layer 1" xmlns="http://www.w3.org/2000/svg" viewBox="0 0 158.32 158.32"><defs><style>.cls-1{fill:#55bdca;}</style></defs><title>arrow-down</title><path id="up" class="cls-1" d="M159.15,79.83A79.16,79.16,0,1,1,79.84.82a79.17,79.17,0,0,1,79.31,79ZM113.3,70.69,90.24,94.83l-.11-58.28a7.63,7.63,0,0,0-7.61-7.64H77.35a7.63,7.63,0,0,0-7.64,7.61v.06l.11,58.28L46.67,70.81a7.66,7.66,0,0,0-10.84-.2l-.11.1-3.47,3.5a7.63,7.63,0,0,0,0,10.79l0,0,42.39,42.3a7.63,7.63,0,0,0,10.79,0h0l42.32-42.43a7.63,7.63,0,0,0,0-10.79l0,0-3.49-3.49a7.71,7.71,0,0,0-10.9,0l-.08.09Z" transform="translate(-0.83 -0.82)"/></svg>