<svg id="Layer_1" data-name="Layer 1" xmlns="http://www.w3.org/2000/svg" viewBox="0 0 156.26 156.26"><defs><style>.cls-1{fill:#f07c41;}</style></defs><title>facebook</title><path id="Path_5444" data-name="Path 5444" class="cls-1" d="M80,2A78.13,78.13,0,1,1,1.87,80.13,78.13,78.13,0,0,1,80,2Z" transform="translate(-1.87 -2)"/><path id="Path_5433" data-name="Path 5433" d="M109.62,40.46a15.11,15.11,0,0,1,11.21,4.71,15.37,15.37,0,0,1,4.62,11.09v52.62a15.19,15.19,0,0,1-4.62,11.1,15.66,15.66,0,0,1-11.21,4.71H99.4V92h10.91l1.57-12.67H99.4V71.17a5.23,5.23,0,0,1,4.15-6.12,5.32,5.32,0,0,1,2.14,0l6.68-.1V53.7a75,75,0,0,0-9.83-.49,16.45,16.45,0,0,0-11.89,4.32A16.11,16.11,0,0,0,86.23,70v9.32h-11V92h11v32.69H57A15.09,15.09,0,0,1,45.83,120a15.4,15.4,0,0,1-4.62-11.1V56.25a15.1,15.1,0,0,1,4.62-11.09A15.64,15.64,0,0,1,57,40.44Z" transform="translate(-1.87 -2)"/></svg>