<svg id="Layer_1" data-name="Layer 1" xmlns="http://www.w3.org/2000/svg" viewBox="0 0 157.39 157.39"><defs><style>.cls-1{fill:#f07c41;}</style></defs><title>instagram</title><path id="Path_5441" data-name="Path 5441" class="cls-1" d="M80,1.3a78.7,78.7,0,0,1,0,157.4h0c-35.59,0-65.66-23.62-76-58.13A74.85,74.85,0,0,1,1.31,80,78.7,78.7,0,0,1,80,1.3Z" transform="translate(-1.3 -1.3)"/><path id="Path_5436" data-name="Path 5436" d="M124.8,61.58q.3,5.08.31,18.32t-.31,18.32A24.49,24.49,0,0,1,101.65,124a23.54,23.54,0,0,1-2.52,0q-5.17.32-18.32.32T62.49,124a27.58,27.58,0,0,1-18.63-7.14,26.67,26.67,0,0,1-7.14-18.63q-.3-5.07-.31-18.32t.31-18.32A24.5,24.5,0,0,1,59.88,35.81q1.3-.06,2.61,0,5.07-.3,18.32-.31t18.32.31A24.49,24.49,0,0,1,124.8,59.06q.06,1.26,0,2.52Zm-44-18.11H70.25c-1.37,0-3.24.07-5.58.21s-4.32.31-5.91.52a13.85,13.85,0,0,0-4.13,1.13,14.54,14.54,0,0,0-5.07,3.32,15.76,15.76,0,0,0-3.42,5.07,22.59,22.59,0,0,0-1,4.14,55,55,0,0,0-.62,6,50.12,50.12,0,0,0-.11,5.48c.07,1.33.07,3.36,0,6.11a41.29,41.29,0,0,0,0,4.45,36.71,36.71,0,0,1,0,4.45q-.1,4.14,0,6.11c.07,1.3.11,3.13.11,5.48a24.66,24.66,0,0,0,.62,6l1,4.15a16,16,0,0,0,3.42,5.07,14.65,14.65,0,0,0,5.07,3.31,28.37,28.37,0,0,0,4.13,1.13,29.33,29.33,0,0,0,5.91.52c2.27,0,4.14.07,5.58.21a47.91,47.91,0,0,0,6.11,0,20.69,20.69,0,0,1,4.45,0,21.08,21.08,0,0,0,4.35,0,44.35,44.35,0,0,1,6.1,0,27.49,27.49,0,0,0,5.59-.21c2.21-.27,4.21-.45,6-.52a7,7,0,0,0,4-1.13,15.82,15.82,0,0,0,5.17-3.31,13.08,13.08,0,0,0,3.32-5.07,22.89,22.89,0,0,0,1-4.15,54.69,54.69,0,0,0,.62-6,52.75,52.75,0,0,0,.11-5.48q-.11-2,0-6.11a41.29,41.29,0,0,0,0-4.45,36.71,36.71,0,0,1,0-4.45c.07-2.76.07-4.79,0-6.11s-.11-3.13-.11-5.48a24.72,24.72,0,0,0-.62-6l-1-4.14a14.63,14.63,0,0,0-3.32-5.07,14.3,14.3,0,0,0-5.17-3.32,27.35,27.35,0,0,0-10-1.65,53.55,53.55,0,0,1-5.59-.21,44.35,44.35,0,0,0-6.1,0,17.59,17.59,0,0,1-4.35,0ZM103.48,79.9a22.12,22.12,0,0,1-6.62,16.16,21.33,21.33,0,0,1-16,6.62,22.71,22.71,0,0,1-16.15-6.62A21.22,21.22,0,0,1,58,79.9,22.62,22.62,0,0,1,80.5,57.13h.31a20.94,20.94,0,0,1,16,6.63,23.34,23.34,0,0,1,6.63,16.14Zm-8,0a14.47,14.47,0,0,0-4.26-10.45,14.74,14.74,0,0,0-20.84-.06l-.06.06A14.8,14.8,0,0,0,66,79.9a13.74,13.74,0,0,0,4.35,10.46,14.74,14.74,0,0,0,20.84.06l.06-.06A13.42,13.42,0,0,0,95.51,79.9ZM109.8,56.2a5.07,5.07,0,0,1-1.55,3.73,5.17,5.17,0,0,1-3.83,1.55,4.87,4.87,0,0,1-3.73-1.55,5.75,5.75,0,0,1-1.55-3.73,4.62,4.62,0,0,1,1.55-3.72,5.28,5.28,0,0,1,3.73-1.55,5.66,5.66,0,0,1,3.83,1.55,4.22,4.22,0,0,1,1.54,3.72Z" transform="translate(-1.3 -1.3)"/></svg>