<svg id="Layer_1" data-name="Layer 1" xmlns="http://www.w3.org/2000/svg" viewBox="0 0 154.88 66.27"><defs><style>.cls-1{fill:none;}.cls-1,.cls-3{stroke:#fff;stroke-linecap:round;stroke-linejoin:round;stroke-width:2.61px;}.cls-2,.cls-3{fill:#fff;}</style></defs><title>logo</title><g id="Layer_2" data-name="Layer 2"><g id="layer1"><g id="g7066"><path id="path5336-6" class="cls-1" d="M14.62,6.54,103.1,6.4l53.69,30.77L103.62,68.1l-89.39.14" transform="translate(-3.21 -4.18)"/><path id="rect5338-48" class="cls-2" d="M101.47,6.89l-4.89,8.73A5.82,5.82,0,0,1,92,18.34L8,18.47c-1.71,0-2.41-1.21-1.57-2.71L11.36,7A5.83,5.83,0,0,1,16,4.32L99.9,4.18C101.61,4.18,102.31,5.39,101.47,6.89Z" transform="translate(-3.21 -4.18)"/><path id="rect5338-4-2" class="cls-2" d="M94.67,25.45l.19,23.62c0,1.29-1.36,2.34-3.07,2.34l-85.27.13c-1.71,0-3.1-1-3.12-2.33L3.21,25.59c0-1.29,1.36-2.34,3.07-2.34l85.27-.14C93.26,23.11,94.65,24.15,94.67,25.45Z" transform="translate(-3.21 -4.18)"/><path id="rect5338-1-1" class="cls-2" d="M102,67.62l-5.12-8.75a6,6,0,0,0-4.68-2.69l-85.27.13c-1.71,0-2.39,1.21-1.51,2.71l5.12,8.74a6,6,0,0,0,4.67,2.69l85.28-.13C102.19,70.31,102.86,69.1,102,67.62Z" transform="translate(-3.21 -4.18)"/><path id="path5336-1-6" class="cls-3" d="M156.77,37.17l-27.6-15.84.27,31.76Z" transform="translate(-3.21 -4.18)"/></g></g></g></svg>