<svg id="Layer_1" data-name="Layer 1" xmlns="http://www.w3.org/2000/svg" viewBox="0 0 156.34 156.35"><defs><style>.cls-1{fill:#f07c41;}</style></defs><title>skills</title><g id="circle"><circle id="Ellipse_5" data-name="Ellipse 5" class="cls-1" cx="78.17" cy="78.17" r="78.17"/></g><g id="design"><path id="Path_5446" data-name="Path 5446" d="M118.18,52.28,107,41.13a3.13,3.13,0,0,0-4.44,0l-21,21L60.92,41.55a4.52,4.52,0,0,0-6.4,0h0L40.59,55.49a4.52,4.52,0,0,0,0,6.4l2.22,2.22L53.05,53.87a1,1,0,0,1,1.42,1.42h0L44.23,65.53l4.24,4.24,6.67-6.68a1,1,0,1,1,1.43,1.43L49.89,71.2l4.24,4.23,6.67-6.67a1,1,0,1,1,1.43,1.42l-6.68,6.68,4.24,4.23L70,70.85a1,1,0,0,1,1.5,1.32L41.46,102.24a8.69,8.69,0,0,0-2.23,5.36v12.45H51.72a8.74,8.74,0,0,0,5.36-2.23l61.09-61.11a3.13,3.13,0,0,0,0-4.42h0Z" transform="translate(-1.83 -1.83)"/><path id="Path_5447" data-name="Path 5447" d="M98.54,79.17l-.8.79L78.2,99.5l4.24,4.24,6.67-6.68a1,1,0,0,1,1.43,1.43h0l-6.68,6.67,4.24,4.24,6.67-6.68a1,1,0,0,1,1.43,1.43l-6.68,6.67,4.24,4.24L104,104.82a1,1,0,0,1,1.43,1.42L95.19,116.48l2.21,2.22a4.52,4.52,0,0,0,6.4,0h0l13.94-13.93a4.54,4.54,0,0,0,0-6.4h0Z" transform="translate(-1.83 -1.83)"/></g></svg>