<svg id="Layer_1" data-name="Layer 1" xmlns="http://www.w3.org/2000/svg" viewBox="0 0 102.36 13.78"><defs><style>.cls-1{fill:#55bdca;}</style></defs><title>socials</title><path id="Path_5444" data-name="Path 5444" class="cls-1" d="M25,11.59" transform="translate(-27.97 -4.73)"/><path id="Path_5433" data-name="Path 5433" class="cls-1" d="M38.6,5.43a2.33,2.33,0,0,1,1.74.73,2.42,2.42,0,0,1,.72,1.72v8.18a2.33,2.33,0,0,1-.72,1.72,2.42,2.42,0,0,1-1.74.73H37V13.43h1.7l.24-2H37V10.2a.82.82,0,0,1,.65-.95.91.91,0,0,1,.33,0h1V7.49a11.21,11.21,0,0,0-1.53-.08,2.59,2.59,0,0,0-1.85.67A2.52,2.52,0,0,0,35,10v1.45H33.26v2H35v5.08H30.43a2.33,2.33,0,0,1-1.74-.73A2.4,2.4,0,0,1,28,16.06V7.88a2.33,2.33,0,0,1,.72-1.72,2.44,2.44,0,0,1,1.74-.73Z" transform="translate(-27.97 -4.73)"/><path id="Path_5434" data-name="Path 5434" class="cls-1" d="M69.05,7.82a5.31,5.31,0,0,0,1.56-.42,6,6,0,0,1-1.35,1.4v.34A7.87,7.87,0,0,1,68,13.4a7.83,7.83,0,0,1-1.54,1.76,7.84,7.84,0,0,1-2.16,1.23,7.91,7.91,0,0,1-6.85-.77c.21,0,.42,0,.64,0a5.25,5.25,0,0,0,3.36-1.15A2.68,2.68,0,0,1,59.86,14a2.83,2.83,0,0,1-1-1.34,3,3,0,0,0,.52,0,2.82,2.82,0,0,0,.71-.09A2.71,2.71,0,0,1,58,9.92v0a2.67,2.67,0,0,0,1.23.34,2.62,2.62,0,0,1-.88-1,2.67,2.67,0,0,1,0-2.65,7.53,7.53,0,0,0,2.46,2,7.22,7.22,0,0,0,3.12.83,2.55,2.55,0,0,1-.08-.61,2.6,2.6,0,0,1,.8-1.91,2.66,2.66,0,0,1,1.9-.79,2.55,2.55,0,0,1,2,.85,5.35,5.35,0,0,0,1.73-.66,2.67,2.67,0,0,1-1.2,1.5Z" transform="translate(-27.97 -4.73)"/><path id="Path_5435" data-name="Path 5435" class="cls-1" d="M99.84,7.74v7.68A2.2,2.2,0,0,1,99.17,17a2.29,2.29,0,0,1-1.64.69H89.87A2.21,2.21,0,0,1,88.23,17a2.24,2.24,0,0,1-.67-1.62V7.74a2.19,2.19,0,0,1,.67-1.62,2.29,2.29,0,0,1,1.64-.69h7.66a2.32,2.32,0,0,1,2.31,2.31Zm-8.41.71a1,1,0,0,0-.3-.69,1,1,0,0,0-.73-.27,1.16,1.16,0,0,0-.76.27.85.85,0,0,0-.31.69.91.91,0,0,0,.29.69,1.19,1.19,0,0,0,1.51,0,1,1,0,0,0,.3-.69Zm-2,7.27H91.3V10.17H89.45Zm6.65,0H98V12.54a2.62,2.62,0,0,0-.59-1.86,1.93,1.93,0,0,0-1.53-.63,1.85,1.85,0,0,0-1.68.93h0v-.81H92.32q0,.54,0,5.55h1.85V12.61a1.3,1.3,0,0,1,0-.44,1.22,1.22,0,0,1,.36-.48,1,1,0,0,1,.59-.2q.93,0,.93,1.26Z" transform="translate(-27.97 -4.73)"/><path id="Path_5436" data-name="Path 5436" class="cls-1" d="M130.28,8.75c0,.52.05,1.47.05,2.83s0,2.3-.05,2.82a3.77,3.77,0,0,1-3.57,4h-.39c-.53,0-1.47.05-2.82.05s-2.3,0-2.83-.05a4.29,4.29,0,0,1-2.87-1.1,4.09,4.09,0,0,1-1.1-2.88c0-.52,0-1.46,0-2.82s0-2.31,0-2.83a3.78,3.78,0,0,1,3.57-4,2.67,2.67,0,0,1,.4,0c.52,0,1.47,0,2.83,0s2.3,0,2.82,0a3.77,3.77,0,0,1,4,3.58,2.54,2.54,0,0,1,0,.39ZM123.5,6h-1.63L121,6c-.36,0-.67,0-.91.08a2.33,2.33,0,0,0-.64.17,2.27,2.27,0,0,0-.78.52,2.3,2.3,0,0,0-.53.78,3.53,3.53,0,0,0-.16.64,7,7,0,0,0-.09.92,8,8,0,0,0,0,.85c0,.2,0,.52,0,.94q0,.34,0,.69c0,.23,0,.46,0,.68,0,.43,0,.74,0,1s0,.48,0,.84A3.67,3.67,0,0,0,118,15l.16.64a2.4,2.4,0,0,0,.53.78,2.24,2.24,0,0,0,.78.51,4.64,4.64,0,0,0,.64.17,4,4,0,0,0,.91.08,6.78,6.78,0,0,1,.86,0,7.37,7.37,0,0,0,.94,0,2.66,2.66,0,0,1,.69,0,3.75,3.75,0,0,0,.67,0,4.92,4.92,0,0,1,.94,0,4.91,4.91,0,0,0,.86,0c.34,0,.65-.06.93-.08a1,1,0,0,0,.62-.17,2.48,2.48,0,0,0,.8-.51,2.11,2.11,0,0,0,.51-.78A3.75,3.75,0,0,0,129,15c0-.31.08-.62.1-.93a7.85,7.85,0,0,0,0-.84c0-.21,0-.52,0-1a3.86,3.86,0,0,0,0-.68q0-.35,0-.69c0-.42,0-.74,0-.94s0-.48,0-.85a4.05,4.05,0,0,0-.1-.92l-.16-.64a2.16,2.16,0,0,0-.51-.78,2.35,2.35,0,0,0-.8-.52,4.37,4.37,0,0,0-.62-.17A4.18,4.18,0,0,0,126,6c-.37,0-.66,0-.86,0a7.37,7.37,0,0,0-.94,0,2.51,2.51,0,0,1-.67,0Zm3.5,5.62a3.45,3.45,0,0,1-1,2.49,3.32,3.32,0,0,1-2.47,1,3.52,3.52,0,0,1-2.49-1,3.29,3.29,0,0,1-1-2.49,3.48,3.48,0,0,1,3.46-3.51h0a3.16,3.16,0,0,1,2.47,1,3.61,3.61,0,0,1,1,2.49Zm-1.23,0a2.2,2.2,0,0,0-.66-1.61,2.26,2.26,0,0,0-3.21,0h0a2.24,2.24,0,0,0-.67,1.61,2.09,2.09,0,0,0,.67,1.61,2.27,2.27,0,0,0,3.21,0h0a2.07,2.07,0,0,0,.66-1.61ZM128,7.92a.83.83,0,0,1-.24.58.87.87,0,0,1-.59.24.78.78,0,0,1-.58-.24.94.94,0,0,1-.24-.58.71.71,0,0,1,.24-.57.8.8,0,0,1,.58-.24.87.87,0,0,1,.59.24.66.66,0,0,1,.24.57Z" transform="translate(-27.97 -4.73)"/></svg>