<svg id="Layer_1" data-name="Layer 1" xmlns="http://www.w3.org/2000/svg" viewBox="0 0 157.39 157.39"><defs><style>.cls-1{fill:#f07c41;}</style></defs><title>twitter</title><path id="Path_5443" data-name="Path 5443" class="cls-1" d="M80,1.3A78.7,78.7,0,1,1,1.3,80,78.71,78.71,0,0,1,80,1.3Z" transform="translate(-1.3 -1.3)"/><path id="Path_5434" data-name="Path 5434" d="M114.09,55.56a36.66,36.66,0,0,0,10.12-2.73,37.61,37.61,0,0,1-8.75,9.05v2.23a50.15,50.15,0,0,1-2,14.1,51.39,51.39,0,0,1-6.23,13.52,49.43,49.43,0,0,1-10,11.38,48.5,48.5,0,0,1-14,8A46.14,46.14,0,0,1,65.56,114a48.27,48.27,0,0,1-26.84-7.88,41.77,41.77,0,0,0,4.18.2,34.32,34.32,0,0,0,21.79-7.49,16.92,16.92,0,0,1-10.21-3.5,17.71,17.71,0,0,1-6.23-8.66,21.54,21.54,0,0,0,3.31.29,19.26,19.26,0,0,0,4.66-.59,17.35,17.35,0,0,1-10.11-6,16.86,16.86,0,0,1-4-11.18V69a17.87,17.87,0,0,0,8,2.23A18,18,0,0,1,44.36,65a17.38,17.38,0,0,1,.28-17.21,50.68,50.68,0,0,0,16,12.93,47.92,47.92,0,0,0,20.23,5.35,17.36,17.36,0,0,1-.49-4,16.7,16.7,0,0,1,5.15-12.35,17.38,17.38,0,0,1,12.36-5.15,16.75,16.75,0,0,1,12.83,5.54,35.17,35.17,0,0,0,11.19-4.28,17.43,17.43,0,0,1-7.78,9.72Z" transform="translate(-1.3 -1.3)"/></svg>