<?xml version="1.0" encoding="utf-8"?>
<!-- Generator: Adobe Illustrator 23.0.6, SVG Export Plug-In . SVG Version: 6.00 Build 0)  -->
<svg version="1.1" id="Layer_1" xmlns="http://www.w3.org/2000/svg" xmlns:xlink="http://www.w3.org/1999/xlink" x="0px" y="0px"
	 viewBox="0 0 608 61.85" style="enable-background:new 0 0 608 61.85;" xml:space="preserve">
<style type="text/css">
	.st0{fill:#3C3B3A;}
	.st1{enable-background:new    ;}
	.st2{fill:#26A682;}
</style>
<path id="Icon_awesome-bowling-ball" class="st0" d="M211.43,6.49c-7.74,0-14.02,6.28-14.02,14.02s6.28,14.02,14.02,14.02
	c7.74,0,14.02-6.28,14.02-14.02c0,0,0,0,0,0C225.45,12.77,219.18,6.49,211.43,6.49C211.43,6.49,211.43,6.49,211.43,6.49z
	 M204.19,16.89c-1,0-1.81-0.81-1.81-1.81s0.81-1.81,1.81-1.81c1,0,1.81,0.81,1.81,1.81C206,16.08,205.19,16.89,204.19,16.89
	C204.19,16.89,204.19,16.89,204.19,16.89L204.19,16.89z M207.81,11.47c0-1,0.81-1.81,1.81-1.81c1,0,1.81,0.81,1.81,1.81
	s-0.81,1.81-1.81,1.81c0,0,0,0,0,0C208.62,13.28,207.81,12.47,207.81,11.47C207.81,11.47,207.81,11.47,207.81,11.47L207.81,11.47z
	 M210.52,19.61c-1,0-1.81-0.81-1.81-1.81c0-1,0.81-1.81,1.81-1.81c1,0,1.81,0.81,1.81,1.81l0,0
	C212.33,18.8,211.53,19.61,210.52,19.61C210.53,19.61,210.53,19.61,210.52,19.61L210.52,19.61z"/>
<g class="st1">
	<path class="st2" d="M194.97,51.65c0,0.34-0.07,0.66-0.21,0.95c-0.14,0.29-0.32,0.54-0.55,0.75c-0.23,0.21-0.5,0.37-0.81,0.49
		c-0.31,0.12-0.64,0.17-0.99,0.17h-4.31v-9.13h4.4c0.32,0,0.6,0.07,0.86,0.21c0.26,0.14,0.48,0.32,0.66,0.53s0.32,0.47,0.42,0.75
		c0.1,0.28,0.15,0.56,0.15,0.84c0,0.46-0.12,0.89-0.35,1.27c-0.23,0.38-0.55,0.67-0.96,0.86c0.52,0.15,0.94,0.44,1.24,0.86
		C194.82,50.6,194.97,51.09,194.97,51.65z M189,45.65v3.37h3.14c0.22,0,0.43-0.05,0.62-0.14c0.19-0.09,0.36-0.22,0.5-0.37
		c0.14-0.15,0.24-0.33,0.32-0.53s0.12-0.41,0.12-0.64c0-0.23-0.04-0.45-0.11-0.66c-0.07-0.21-0.18-0.38-0.31-0.53
		c-0.13-0.15-0.29-0.27-0.47-0.36c-0.18-0.09-0.38-0.13-0.59-0.13H189z M194.07,51.49c0-0.22-0.04-0.44-0.12-0.65
		s-0.19-0.39-0.33-0.55c-0.14-0.16-0.31-0.29-0.5-0.39s-0.4-0.15-0.62-0.15H189v3.46h3.41c0.23,0,0.45-0.05,0.65-0.14
		c0.2-0.09,0.38-0.22,0.53-0.38c0.15-0.16,0.27-0.34,0.35-0.55C194.03,51.93,194.07,51.72,194.07,51.49z"/>
	<path class="st2" d="M199.34,54.13c-0.49,0-0.93-0.09-1.34-0.28c-0.4-0.18-0.75-0.43-1.05-0.75s-0.53-0.69-0.69-1.11
		s-0.24-0.86-0.24-1.33c0-0.47,0.08-0.92,0.25-1.34c0.17-0.42,0.4-0.79,0.69-1.11s0.65-0.57,1.05-0.76c0.4-0.19,0.84-0.28,1.32-0.28
		s0.92,0.09,1.33,0.28c0.41,0.19,0.76,0.44,1.06,0.76s0.53,0.69,0.69,1.11c0.17,0.42,0.25,0.87,0.25,1.34
		c0,0.46-0.08,0.91-0.24,1.33c-0.16,0.42-0.39,0.79-0.69,1.11s-0.65,0.57-1.05,0.75C200.28,54.04,199.83,54.13,199.34,54.13z
		 M196.91,50.68c0,0.38,0.06,0.73,0.19,1.05c0.13,0.32,0.3,0.6,0.52,0.85c0.22,0.25,0.48,0.44,0.77,0.57
		c0.3,0.14,0.61,0.21,0.95,0.21s0.65-0.07,0.95-0.21s0.56-0.33,0.78-0.58s0.4-0.53,0.53-0.86c0.13-0.33,0.19-0.68,0.19-1.05
		c0-0.37-0.06-0.72-0.19-1.05c-0.13-0.33-0.3-0.62-0.53-0.86c-0.22-0.24-0.48-0.44-0.78-0.58c-0.3-0.14-0.61-0.21-0.95-0.21
		s-0.65,0.07-0.94,0.21c-0.29,0.14-0.55,0.34-0.77,0.58s-0.4,0.54-0.53,0.87C196.98,49.95,196.91,50.3,196.91,50.68z"/>
	<path class="st2" d="M212.34,47.3h0.86l-2.88,6.7h-0.72l-1.44-3.42L206.73,54h-0.72l-2.88-6.7h0.85l2.44,5.8l1.27-3.06l-1.15-2.73
		h0.73l0.87,2.19l0.88-2.19h0.75l-1.15,2.73l1.27,3.06L212.34,47.3z"/>
	<path class="st2" d="M214.4,44.61h0.88v7.87c0,0.25,0.07,0.44,0.21,0.59s0.33,0.21,0.58,0.21c0.09,0,0.21-0.01,0.33-0.04
		c0.13-0.03,0.25-0.06,0.36-0.1l0.15,0.71c-0.16,0.07-0.36,0.12-0.6,0.17s-0.44,0.06-0.61,0.06c-0.4,0-0.72-0.11-0.95-0.34
		c-0.23-0.23-0.35-0.55-0.35-0.96V44.61z"/>
	<path class="st2" d="M217.86,45.9v-1.29h0.88v1.29H217.86z M217.86,54v-6.7h0.88V54H217.86z"/>
	<path class="st2" d="M226.3,54h-0.88v-3.74c0-0.8-0.12-1.38-0.35-1.74s-0.6-0.54-1.09-0.54c-0.26,0-0.51,0.05-0.77,0.14
		c-0.26,0.09-0.5,0.23-0.71,0.4s-0.41,0.38-0.59,0.61c-0.17,0.24-0.3,0.49-0.37,0.76V54h-0.88v-6.7h0.8v1.52
		c0.27-0.49,0.67-0.88,1.18-1.18c0.51-0.3,1.07-0.45,1.67-0.45c0.37,0,0.68,0.07,0.94,0.21c0.26,0.14,0.46,0.33,0.62,0.58
		c0.15,0.25,0.27,0.55,0.33,0.91c0.07,0.36,0.1,0.76,0.1,1.2V54z"/>
	<path class="st2" d="M230.85,54.09c-0.46,0-0.89-0.1-1.27-0.29c-0.38-0.19-0.71-0.45-0.99-0.77c-0.28-0.32-0.5-0.68-0.65-1.09
		c-0.15-0.41-0.23-0.84-0.23-1.27c0-0.46,0.07-0.91,0.23-1.33c0.15-0.42,0.36-0.79,0.64-1.11s0.6-0.57,0.98-0.76
		c0.38-0.19,0.8-0.28,1.27-0.28c0.57,0,1.07,0.14,1.49,0.43c0.42,0.29,0.78,0.65,1.08,1.09v-1.4h0.78v6.73
		c0,0.46-0.09,0.87-0.26,1.23c-0.18,0.36-0.41,0.65-0.71,0.89s-0.64,0.42-1.04,0.54c-0.4,0.12-0.82,0.18-1.27,0.18
		c-0.77,0-1.39-0.14-1.87-0.41s-0.85-0.64-1.15-1.11l0.54-0.42c0.27,0.43,0.62,0.74,1.06,0.95c0.44,0.2,0.91,0.3,1.42,0.3
		c0.33,0,0.63-0.04,0.93-0.13s0.55-0.22,0.77-0.4s0.39-0.4,0.52-0.67c0.13-0.27,0.19-0.59,0.19-0.95V52.7
		c-0.26,0.43-0.61,0.77-1.05,1.02C231.81,53.97,231.34,54.09,230.85,54.09z M231.09,53.36c0.26,0,0.51-0.05,0.76-0.14
		c0.25-0.09,0.47-0.22,0.68-0.38c0.2-0.16,0.37-0.34,0.51-0.53s0.23-0.4,0.27-0.6v-2.07c-0.09-0.24-0.22-0.46-0.39-0.67
		c-0.16-0.21-0.35-0.38-0.55-0.53c-0.21-0.15-0.43-0.26-0.66-0.35s-0.47-0.13-0.71-0.13c-0.38,0-0.71,0.08-1.01,0.24
		s-0.55,0.37-0.75,0.62c-0.21,0.26-0.36,0.55-0.47,0.88s-0.16,0.66-0.16,0.99c0,0.36,0.06,0.7,0.19,1.03
		c0.13,0.33,0.31,0.61,0.53,0.86c0.23,0.24,0.49,0.44,0.79,0.58S230.74,53.36,231.09,53.36z"/>
</g>
<path id="Icon_map-climbing" class="st0" d="M380.04,19.45c-0.2,0.41-0.3,0.86-0.3,1.31l0.11,7.02l-2.43,5.23
	c-0.41,0.77-0.12,1.73,0.65,2.14c0.76,0.41,1.71,0.13,2.13-0.62l2.68-5.71c0.06-0.14,0.1-0.28,0.13-0.42l0.01-0.22L383,23.83
	l4.12,1.79l0.66,4.24c0.19,0.85,1.04,1.39,1.9,1.2c0.63-0.14,1.11-0.66,1.22-1.3c0.02-0.14,0.02-0.29,0.01-0.43l-0.81-5.12
	c-0.1-0.5-0.43-0.92-0.88-1.14l-3.68-1.63l2.34-4.06l1.16,1.47c0.12,0.14,0.28,0.24,0.45,0.31l4.43,1.29
	c0.67,0.15,1.33-0.28,1.48-0.95c0.13-0.59-0.19-1.19-0.75-1.42l-0.06-0.02l-3.85-1.13l-2.89-3.46c-0.45-0.48-1.04-0.79-1.69-0.89
	c-1.14-0.17-2.27,0.35-2.88,1.33L380.04,19.45z M392.75,29.51l-0.28,2.1l-7.62,1.85l0.07,1.3h18.57c0.65,0,1.19-0.52,1.19-1.18
	c0,0,0,0,0,0l-0.02-24.93l-2.54-0.59l-1.46,6.56l-2.44,1.02l-2.17,6.05l2.07,4.63l-0.58,1.78L392.75,29.51z M387.58,12.28
	c1.3-0.01,2.36-1.07,2.35-2.37c-0.01-1.3-1.07-2.36-2.37-2.35c-1.3,0.01-2.35,1.06-2.35,2.36
	C385.21,11.22,386.27,12.28,387.58,12.28z M382.86,12.65c0.18-0.32,0.07-0.73-0.25-0.92c0,0,0,0,0,0l-1.15-0.67
	c-0.33-0.18-0.74-0.07-0.93,0.25l-3.54,6.08c-0.19,0.32-0.08,0.73,0.25,0.92c0,0,0,0,0.01,0l1.15,0.66
	c0.32,0.19,0.73,0.08,0.92-0.24L382.86,12.65z"/>
<g class="st1">
	<path class="st2" d="M348.35,55.06v-9.13h3.86c0.39,0,0.76,0.08,1.09,0.25c0.33,0.17,0.62,0.39,0.86,0.66
		c0.24,0.27,0.43,0.58,0.56,0.92c0.13,0.34,0.2,0.69,0.2,1.04c0,0.33-0.05,0.65-0.15,0.96s-0.24,0.58-0.41,0.82
		s-0.39,0.45-0.64,0.62s-0.53,0.28-0.84,0.34l2.24,3.53h-1.02l-2.15-3.37h-2.7v3.37H348.35z M349.25,50.9h2.98
		c0.27,0,0.51-0.06,0.73-0.17c0.22-0.12,0.41-0.27,0.56-0.47c0.16-0.2,0.27-0.42,0.36-0.67s0.13-0.51,0.13-0.79
		s-0.05-0.54-0.15-0.79c-0.1-0.25-0.23-0.47-0.4-0.66c-0.17-0.19-0.36-0.34-0.59-0.45c-0.23-0.11-0.46-0.17-0.71-0.17h-2.91V50.9z"
		/>
	<path class="st2" d="M359.23,55.19c-0.49,0-0.94-0.09-1.34-0.28c-0.4-0.18-0.75-0.43-1.05-0.75s-0.53-0.69-0.69-1.11
		s-0.24-0.86-0.24-1.33c0-0.47,0.08-0.92,0.25-1.34c0.17-0.42,0.4-0.79,0.69-1.11s0.65-0.57,1.05-0.76c0.4-0.19,0.84-0.28,1.33-0.28
		c0.48,0,0.92,0.09,1.33,0.28c0.41,0.19,0.76,0.44,1.05,0.76s0.53,0.69,0.7,1.11s0.25,0.87,0.25,1.34c0,0.46-0.08,0.91-0.25,1.33
		c-0.16,0.42-0.39,0.79-0.69,1.11s-0.65,0.57-1.06,0.75C360.17,55.1,359.72,55.19,359.23,55.19z M356.8,51.74
		c0,0.38,0.06,0.73,0.19,1.05c0.13,0.32,0.3,0.6,0.52,0.85c0.22,0.25,0.48,0.44,0.77,0.57c0.3,0.14,0.61,0.21,0.95,0.21
		c0.33,0,0.65-0.07,0.95-0.21s0.56-0.33,0.78-0.58s0.4-0.53,0.53-0.86s0.19-0.68,0.19-1.05c0-0.37-0.06-0.72-0.19-1.05
		s-0.3-0.62-0.53-0.86c-0.22-0.24-0.48-0.44-0.78-0.58c-0.3-0.14-0.61-0.21-0.95-0.21c-0.33,0-0.65,0.07-0.94,0.21
		c-0.29,0.14-0.55,0.34-0.77,0.58c-0.22,0.25-0.4,0.54-0.53,0.87C356.87,51.01,356.8,51.37,356.8,51.74z"/>
	<path class="st2" d="M363.57,51.69c0-0.47,0.08-0.92,0.24-1.34c0.16-0.42,0.39-0.79,0.69-1.1s0.65-0.56,1.06-0.74
		c0.41-0.18,0.87-0.27,1.36-0.27c0.63,0,1.19,0.14,1.66,0.43s0.83,0.68,1.07,1.16l-0.85,0.27c-0.19-0.34-0.45-0.61-0.79-0.8
		c-0.34-0.19-0.71-0.29-1.13-0.29c-0.34,0-0.66,0.07-0.96,0.21c-0.3,0.14-0.55,0.32-0.77,0.56c-0.22,0.24-0.39,0.52-0.51,0.84
		c-0.13,0.33-0.19,0.68-0.19,1.07c0,0.38,0.06,0.73,0.19,1.07c0.13,0.33,0.3,0.62,0.53,0.87c0.22,0.24,0.48,0.44,0.78,0.58
		s0.61,0.21,0.95,0.21c0.21,0,0.43-0.03,0.64-0.09c0.21-0.06,0.41-0.14,0.58-0.25c0.18-0.11,0.33-0.23,0.46-0.37
		c0.13-0.14,0.22-0.28,0.27-0.44l0.86,0.26c-0.09,0.24-0.23,0.46-0.41,0.66c-0.18,0.2-0.39,0.38-0.64,0.53
		c-0.24,0.15-0.51,0.27-0.81,0.35c-0.3,0.08-0.6,0.12-0.92,0.12c-0.49,0-0.94-0.09-1.35-0.28c-0.41-0.18-0.77-0.44-1.07-0.76
		c-0.3-0.32-0.53-0.69-0.7-1.11C363.65,52.62,363.57,52.17,363.57,51.69z"/>
	<path class="st2" d="M375.88,55.06l-2.47-3.43l-1.44,1.34v2.1h-0.88v-9.39h0.88v6.38l3.77-3.68h0.99l-2.74,2.74l2.84,3.95H375.88z"
		/>
	<path class="st2" d="M380.77,50.43c0-0.55,0.1-1.1,0.29-1.64c0.19-0.54,0.47-1.03,0.84-1.46c0.37-0.43,0.82-0.78,1.36-1.05
		c0.54-0.27,1.15-0.41,1.84-0.41c0.81,0,1.51,0.18,2.09,0.55c0.58,0.37,1,0.85,1.28,1.44l-0.71,0.44c-0.15-0.3-0.32-0.55-0.53-0.76
		c-0.21-0.21-0.44-0.37-0.67-0.5c-0.24-0.13-0.49-0.22-0.75-0.28c-0.26-0.06-0.51-0.08-0.76-0.08c-0.55,0-1.03,0.11-1.45,0.33
		c-0.42,0.22-0.77,0.51-1.06,0.88c-0.29,0.36-0.5,0.77-0.65,1.22c-0.15,0.45-0.22,0.91-0.22,1.37c0,0.51,0.09,0.99,0.26,1.45
		c0.17,0.46,0.42,0.87,0.72,1.23c0.3,0.36,0.67,0.64,1.08,0.85c0.42,0.21,0.87,0.32,1.36,0.32c0.26,0,0.52-0.03,0.79-0.1
		s0.53-0.17,0.79-0.31c0.25-0.14,0.49-0.32,0.7-0.53c0.21-0.21,0.39-0.46,0.54-0.77l0.75,0.39c-0.15,0.34-0.35,0.65-0.62,0.91
		c-0.27,0.26-0.56,0.48-0.89,0.66c-0.33,0.18-0.67,0.32-1.04,0.41c-0.36,0.09-0.72,0.14-1.07,0.14c-0.63,0-1.2-0.14-1.72-0.41
		c-0.52-0.27-0.97-0.63-1.35-1.07c-0.38-0.44-0.67-0.94-0.88-1.5S380.77,51.02,380.77,50.43z"/>
	<path class="st2" d="M390.06,45.67h0.87v7.87c0,0.25,0.07,0.44,0.21,0.59c0.14,0.14,0.33,0.21,0.58,0.21
		c0.09,0,0.21-0.01,0.33-0.04c0.13-0.03,0.25-0.06,0.36-0.1l0.16,0.71c-0.16,0.07-0.36,0.12-0.6,0.17
		c-0.24,0.04-0.44,0.06-0.61,0.06c-0.4,0-0.72-0.11-0.95-0.34s-0.35-0.55-0.35-0.96V45.67z"/>
	<path class="st2" d="M393.52,46.96v-1.29h0.88v1.29H393.52z M393.52,55.06v-6.7h0.88v6.7H393.52z"/>
	<path class="st2" d="M406.29,55.06h-0.88v-3.74c0-0.78-0.12-1.35-0.37-1.72s-0.62-0.55-1.11-0.55c-0.26,0-0.5,0.05-0.73,0.14
		c-0.23,0.09-0.44,0.23-0.63,0.4c-0.19,0.17-0.36,0.38-0.51,0.61c-0.15,0.24-0.26,0.5-0.33,0.78v4.09h-0.87v-3.74
		c0-0.8-0.12-1.38-0.36-1.74c-0.24-0.36-0.61-0.54-1.11-0.54c-0.51,0-0.96,0.18-1.35,0.53s-0.68,0.81-0.85,1.39v4.1h-0.88v-6.7h0.8
		v1.52c0.27-0.51,0.63-0.92,1.08-1.2c0.45-0.29,0.94-0.43,1.48-0.43c0.57,0,1.02,0.16,1.36,0.48s0.55,0.73,0.62,1.25
		c0.63-1.15,1.49-1.72,2.59-1.72c0.38,0,0.7,0.07,0.96,0.21c0.26,0.14,0.47,0.33,0.63,0.58c0.16,0.25,0.27,0.56,0.35,0.91
		c0.07,0.36,0.11,0.75,0.11,1.19V55.06z"/>
	<path class="st2" d="M411.43,55.19c-0.53,0-1.02-0.13-1.46-0.4c-0.44-0.27-0.79-0.61-1.04-1.03v1.3h-0.79v-9.39h0.88v4.09
		c0.3-0.45,0.66-0.82,1.08-1.1c0.42-0.28,0.91-0.42,1.47-0.42c0.47,0,0.89,0.1,1.27,0.3s0.69,0.46,0.95,0.79s0.46,0.7,0.6,1.12
		s0.21,0.84,0.21,1.28c0,0.47-0.08,0.92-0.24,1.34s-0.39,0.79-0.67,1.1c-0.28,0.31-0.62,0.56-1.01,0.75
		C412.29,55.1,411.87,55.19,411.43,55.19z M411.22,54.42c0.37,0,0.71-0.07,1.01-0.22c0.3-0.15,0.57-0.35,0.78-0.6
		s0.39-0.54,0.51-0.86c0.13-0.32,0.19-0.65,0.19-1c0-0.35-0.06-0.69-0.17-1.02c-0.12-0.33-0.28-0.62-0.49-0.87s-0.46-0.46-0.76-0.6
		c-0.3-0.15-0.62-0.23-0.97-0.23c-0.27,0-0.51,0.04-0.75,0.14c-0.23,0.09-0.45,0.21-0.64,0.37s-0.37,0.33-0.53,0.53
		c-0.15,0.2-0.28,0.41-0.39,0.64v2.08c0.03,0.23,0.13,0.45,0.28,0.65c0.15,0.2,0.33,0.38,0.54,0.52c0.21,0.15,0.44,0.26,0.68,0.35
		C410.76,54.38,411,54.42,411.22,54.42z"/>
	<path class="st2" d="M416.08,46.96v-1.29h0.88v1.29H416.08z M416.08,55.06v-6.7h0.88v6.7H416.08z"/>
	<path class="st2" d="M424.52,55.06h-0.88v-3.74c0-0.8-0.12-1.38-0.35-1.74c-0.24-0.36-0.6-0.54-1.09-0.54
		c-0.26,0-0.51,0.05-0.77,0.14c-0.26,0.09-0.5,0.23-0.71,0.4s-0.41,0.38-0.58,0.61c-0.17,0.24-0.3,0.49-0.37,0.76v4.1h-0.88v-6.7
		h0.8v1.52c0.27-0.49,0.67-0.88,1.18-1.18c0.51-0.3,1.07-0.45,1.67-0.45c0.37,0,0.68,0.07,0.94,0.21c0.26,0.14,0.46,0.33,0.62,0.58
		c0.15,0.25,0.27,0.55,0.33,0.91s0.1,0.76,0.1,1.2V55.06z"/>
	<path class="st2" d="M429.08,55.15c-0.46,0-0.89-0.1-1.27-0.29c-0.38-0.19-0.71-0.45-0.99-0.77c-0.28-0.32-0.5-0.68-0.65-1.09
		c-0.15-0.41-0.23-0.84-0.23-1.27c0-0.46,0.08-0.91,0.23-1.33c0.15-0.42,0.36-0.79,0.64-1.11c0.27-0.32,0.6-0.57,0.98-0.76
		c0.38-0.19,0.8-0.28,1.27-0.28c0.57,0,1.07,0.14,1.49,0.43s0.78,0.65,1.08,1.09v-1.4h0.79v6.73c0,0.46-0.09,0.87-0.26,1.23
		c-0.18,0.36-0.41,0.65-0.71,0.89s-0.64,0.42-1.04,0.54c-0.4,0.12-0.82,0.18-1.27,0.18c-0.77,0-1.39-0.14-1.87-0.41
		s-0.85-0.64-1.15-1.11l0.54-0.42c0.27,0.43,0.62,0.74,1.05,0.95c0.44,0.2,0.91,0.3,1.42,0.3c0.33,0,0.63-0.04,0.93-0.13
		c0.29-0.09,0.55-0.22,0.77-0.4c0.22-0.18,0.39-0.4,0.52-0.67c0.13-0.27,0.19-0.59,0.19-0.95v-1.33c-0.26,0.43-0.61,0.77-1.06,1.02
		C430.03,55.03,429.57,55.15,429.08,55.15z M429.32,54.42c0.26,0,0.51-0.05,0.76-0.14c0.25-0.09,0.47-0.22,0.68-0.38
		c0.2-0.16,0.37-0.34,0.51-0.53c0.14-0.2,0.23-0.4,0.27-0.6v-2.07c-0.09-0.24-0.22-0.46-0.39-0.67c-0.16-0.21-0.35-0.38-0.55-0.53
		c-0.21-0.15-0.43-0.26-0.66-0.35c-0.24-0.09-0.47-0.13-0.71-0.13c-0.38,0-0.71,0.08-1.01,0.24s-0.55,0.37-0.75,0.62
		c-0.21,0.26-0.36,0.55-0.47,0.88c-0.11,0.33-0.16,0.66-0.16,0.99c0,0.36,0.06,0.7,0.19,1.03c0.13,0.33,0.31,0.61,0.53,0.86
		s0.49,0.44,0.79,0.58C428.64,54.35,428.97,54.42,429.32,54.42z"/>
</g>
<path id="Icon_map-gym" class="st0" d="M53.26,32.78c0.22,0.24,0.2,0.6-0.03,0.82l-1.26,1.18c-0.23,0.22-0.6,0.2-0.82-0.03
	l-7.32-7.89c-0.22-0.24-0.2-0.6,0.03-0.82l1.26-1.17c0.23-0.22,0.6-0.2,0.82,0.03L53.26,32.78z M62.61,17.93
	c0.22,0.24,0.2,0.6-0.03,0.82l-7.91,7.39c-0.23,0.22-0.6,0.2-0.82-0.03l-1.89-2.04c-0.22-0.24-0.2-0.6,0.03-0.82l7.91-7.39
	c0.23-0.22,0.6-0.2,0.82,0.03c0,0,0,0,0,0C60.72,15.89,62.61,17.93,62.61,17.93z M55.96,30.26c0.22,0.24,0.2,0.6-0.03,0.82
	l-1.26,1.18c-0.23,0.22-0.6,0.2-0.82-0.03l-7.32-7.89c-0.22-0.24-0.2-0.6,0.03-0.82l1.26-1.17c0.23-0.22,0.6-0.2,0.82,0.03
	L55.96,30.26z M68.15,18.21c0.22,0.24,0.2,0.6-0.03,0.82l-1.26,1.18c-0.23,0.22-0.6,0.2-0.82-0.03l-7.32-7.89
	c-0.22-0.23-0.2-0.6,0.03-0.82l1.26-1.18c0.23-0.22,0.6-0.2,0.82,0.03c0,0,0,0,0,0L68.15,18.21L68.15,18.21z M70.84,15.7
	c0.22,0.24,0.2,0.6-0.03,0.82l-1.26,1.18c-0.23,0.22-0.6,0.2-0.82-0.03c0,0,0,0,0,0l-7.32-7.89c-0.22-0.24-0.2-0.6,0.03-0.82
	l1.26-1.18c0.23-0.22,0.6-0.2,0.81,0.03c0,0,0,0,0,0L70.84,15.7z"/>
<g class="st1">
	<path class="st2" d="M15.85,54.13V45h6v0.8h-5.09v3.36h4.3v0.75h-4.3v4.23H15.85z"/>
	<path class="st2" d="M23.25,46.03v-1.29h0.88v1.29H23.25z M23.25,54.13v-6.7h0.88v6.7H23.25z"/>
	<path class="st2" d="M29.27,53.81c-0.05,0.03-0.13,0.06-0.23,0.1s-0.21,0.09-0.34,0.13c-0.13,0.04-0.27,0.08-0.44,0.12
		c-0.16,0.03-0.33,0.05-0.51,0.05c-0.19,0-0.37-0.03-0.54-0.08c-0.17-0.05-0.32-0.13-0.45-0.24c-0.13-0.11-0.23-0.24-0.31-0.41
		c-0.08-0.16-0.12-0.35-0.12-0.57v-4.8h-0.93v-0.7h0.93v-2.26h0.87v2.26h1.54v0.7h-1.54v4.55c0.02,0.25,0.1,0.43,0.26,0.55
		c0.16,0.12,0.34,0.17,0.55,0.17c0.25,0,0.47-0.04,0.66-0.12s0.31-0.14,0.36-0.17L29.27,53.81z"/>
	<path class="st2" d="M36,54.13h-0.88v-3.74c0-0.8-0.12-1.38-0.35-1.74s-0.6-0.54-1.09-0.54c-0.26,0-0.51,0.05-0.77,0.14
		c-0.26,0.09-0.5,0.23-0.71,0.4s-0.41,0.38-0.59,0.61c-0.17,0.24-0.3,0.49-0.37,0.76v4.1h-0.88v-6.7h0.8v1.52
		c0.27-0.49,0.67-0.88,1.18-1.18c0.51-0.3,1.07-0.45,1.67-0.45c0.37,0,0.68,0.07,0.94,0.21c0.26,0.14,0.46,0.33,0.62,0.58
		c0.15,0.25,0.27,0.55,0.33,0.91c0.07,0.36,0.1,0.76,0.1,1.2V54.13z"/>
	<path class="st2" d="M40.76,54.26c-0.49,0-0.94-0.09-1.34-0.28c-0.41-0.18-0.76-0.44-1.06-0.76c-0.3-0.32-0.53-0.69-0.7-1.11
		c-0.17-0.42-0.25-0.87-0.25-1.35c0-0.47,0.08-0.92,0.25-1.33c0.17-0.42,0.4-0.78,0.69-1.09c0.3-0.31,0.65-0.56,1.06-0.75
		s0.86-0.28,1.34-0.28c0.49,0,0.94,0.09,1.34,0.28c0.41,0.18,0.76,0.44,1.05,0.75c0.29,0.32,0.52,0.68,0.68,1.09
		c0.16,0.41,0.24,0.85,0.24,1.31c0,0.07,0,0.14,0,0.21s0,0.12-0.01,0.14h-5.74c0.03,0.36,0.11,0.69,0.25,1s0.32,0.57,0.55,0.79
		c0.22,0.22,0.48,0.4,0.77,0.52c0.29,0.12,0.59,0.19,0.92,0.19c0.21,0,0.43-0.03,0.64-0.09c0.21-0.06,0.41-0.14,0.59-0.24
		c0.18-0.1,0.34-0.23,0.49-0.38c0.15-0.15,0.26-0.32,0.33-0.5l0.76,0.21c-0.1,0.25-0.25,0.47-0.44,0.68
		c-0.19,0.2-0.41,0.38-0.66,0.53c-0.25,0.15-0.52,0.27-0.82,0.35C41.4,54.22,41.09,54.26,40.76,54.26z M43.23,50.43
		c-0.03-0.36-0.11-0.69-0.25-0.98c-0.14-0.3-0.32-0.55-0.54-0.77c-0.22-0.21-0.47-0.38-0.76-0.5C41.39,48.06,41.09,48,40.76,48
		c-0.33,0-0.63,0.06-0.93,0.18c-0.29,0.12-0.55,0.29-0.77,0.5c-0.22,0.21-0.39,0.47-0.53,0.77c-0.13,0.3-0.21,0.63-0.24,0.98H43.23z
		"/>
	<path class="st2" d="M47.64,54.26c-0.52,0-1.03-0.09-1.53-0.26c-0.5-0.17-0.93-0.42-1.29-0.75l0.4-0.59
		c0.38,0.31,0.76,0.54,1.15,0.7c0.39,0.15,0.81,0.23,1.25,0.23c0.54,0,0.97-0.11,1.29-0.33s0.48-0.53,0.48-0.93
		c0-0.19-0.04-0.35-0.13-0.47c-0.09-0.12-0.21-0.23-0.38-0.33c-0.17-0.09-0.38-0.18-0.63-0.25s-0.55-0.15-0.88-0.23
		c-0.39-0.09-0.72-0.19-1-0.28c-0.28-0.09-0.52-0.2-0.7-0.32s-0.32-0.27-0.41-0.44c-0.09-0.18-0.14-0.4-0.14-0.66
		c0-0.33,0.07-0.63,0.2-0.89c0.13-0.26,0.31-0.47,0.54-0.64c0.23-0.17,0.49-0.29,0.8-0.38c0.3-0.08,0.63-0.13,0.97-0.13
		c0.51,0,0.98,0.08,1.4,0.25c0.42,0.17,0.76,0.39,1.02,0.66l-0.42,0.51c-0.25-0.26-0.55-0.45-0.91-0.58
		c-0.36-0.13-0.73-0.19-1.11-0.19c-0.23,0-0.45,0.02-0.64,0.07s-0.37,0.12-0.52,0.23c-0.15,0.1-0.27,0.23-0.35,0.39
		c-0.09,0.16-0.13,0.35-0.13,0.56c0,0.18,0.03,0.33,0.09,0.44c0.06,0.11,0.16,0.21,0.3,0.29c0.14,0.08,0.31,0.15,0.52,0.22
		c0.21,0.06,0.46,0.13,0.77,0.2c0.43,0.1,0.81,0.21,1.13,0.31c0.33,0.1,0.6,0.22,0.82,0.36c0.22,0.14,0.38,0.3,0.5,0.5
		c0.11,0.2,0.17,0.44,0.17,0.72c0,0.62-0.24,1.11-0.71,1.47C49.08,54.08,48.44,54.26,47.64,54.26z"/>
	<path class="st2" d="M53.91,54.26c-0.52,0-1.03-0.09-1.53-0.26c-0.5-0.17-0.93-0.42-1.29-0.75l0.4-0.59
		c0.38,0.31,0.76,0.54,1.15,0.7c0.39,0.15,0.81,0.23,1.25,0.23c0.54,0,0.97-0.11,1.29-0.33s0.48-0.53,0.48-0.93
		c0-0.19-0.04-0.35-0.13-0.47c-0.09-0.12-0.21-0.23-0.38-0.33c-0.17-0.09-0.38-0.18-0.63-0.25s-0.55-0.15-0.88-0.23
		c-0.39-0.09-0.72-0.19-1-0.28c-0.28-0.09-0.52-0.2-0.7-0.32s-0.32-0.27-0.41-0.44c-0.09-0.18-0.14-0.4-0.14-0.66
		c0-0.33,0.07-0.63,0.2-0.89c0.13-0.26,0.31-0.47,0.54-0.64c0.23-0.17,0.49-0.29,0.8-0.38c0.3-0.08,0.63-0.13,0.97-0.13
		c0.51,0,0.98,0.08,1.4,0.25c0.42,0.17,0.76,0.39,1.02,0.66l-0.42,0.51c-0.25-0.26-0.55-0.45-0.91-0.58
		c-0.36-0.13-0.73-0.19-1.11-0.19c-0.23,0-0.45,0.02-0.64,0.07s-0.37,0.12-0.52,0.23c-0.15,0.1-0.27,0.23-0.35,0.39
		c-0.09,0.16-0.13,0.35-0.13,0.56c0,0.18,0.03,0.33,0.09,0.44c0.06,0.11,0.16,0.21,0.3,0.29c0.14,0.08,0.31,0.15,0.52,0.22
		c0.21,0.06,0.46,0.13,0.77,0.2c0.43,0.1,0.81,0.21,1.13,0.31c0.33,0.1,0.6,0.22,0.82,0.36c0.22,0.14,0.38,0.3,0.5,0.5
		c0.11,0.2,0.17,0.44,0.17,0.72c0,0.62-0.24,1.11-0.71,1.47C55.34,54.08,54.71,54.26,53.91,54.26z"/>
	<path class="st2" d="M60.8,49.5c0-0.55,0.1-1.1,0.29-1.64c0.19-0.54,0.47-1.03,0.84-1.46c0.37-0.43,0.82-0.78,1.36-1.05
		c0.54-0.27,1.15-0.41,1.84-0.41c0.81,0,1.51,0.18,2.09,0.55c0.58,0.37,1.01,0.85,1.28,1.44l-0.71,0.44
		c-0.15-0.3-0.32-0.55-0.53-0.76c-0.21-0.21-0.44-0.37-0.68-0.5c-0.24-0.13-0.49-0.22-0.75-0.28c-0.26-0.06-0.51-0.08-0.76-0.08
		c-0.55,0-1.03,0.11-1.45,0.33c-0.42,0.22-0.77,0.51-1.06,0.88c-0.29,0.36-0.5,0.77-0.65,1.22c-0.15,0.45-0.22,0.91-0.22,1.37
		c0,0.51,0.09,0.99,0.26,1.45c0.18,0.46,0.42,0.87,0.72,1.23c0.3,0.36,0.66,0.64,1.08,0.85c0.42,0.21,0.87,0.32,1.36,0.32
		c0.26,0,0.52-0.03,0.79-0.1s0.53-0.17,0.78-0.31s0.49-0.32,0.7-0.53S67.8,52,67.94,51.7l0.75,0.39c-0.15,0.34-0.35,0.65-0.62,0.91
		c-0.27,0.26-0.56,0.48-0.89,0.66c-0.33,0.18-0.67,0.32-1.04,0.41c-0.36,0.09-0.72,0.14-1.07,0.14c-0.63,0-1.2-0.14-1.72-0.41
		c-0.52-0.27-0.97-0.63-1.35-1.07c-0.38-0.44-0.67-0.94-0.88-1.5S60.8,50.09,60.8,49.5z"/>
	<path class="st2" d="M72.95,54.26c-0.49,0-0.94-0.09-1.34-0.28c-0.41-0.18-0.76-0.44-1.06-0.76c-0.3-0.32-0.53-0.69-0.7-1.11
		c-0.17-0.42-0.25-0.87-0.25-1.35c0-0.47,0.08-0.92,0.25-1.33c0.17-0.42,0.4-0.78,0.69-1.09c0.3-0.31,0.65-0.56,1.06-0.75
		s0.86-0.28,1.34-0.28c0.49,0,0.94,0.09,1.34,0.28c0.41,0.18,0.76,0.44,1.05,0.75c0.29,0.32,0.52,0.68,0.68,1.09
		c0.16,0.41,0.24,0.85,0.24,1.31c0,0.07,0,0.14,0,0.21s0,0.12-0.01,0.14H70.5c0.03,0.36,0.11,0.69,0.25,1s0.32,0.57,0.55,0.79
		c0.22,0.22,0.48,0.4,0.77,0.52c0.29,0.12,0.59,0.19,0.92,0.19c0.21,0,0.43-0.03,0.64-0.09c0.21-0.06,0.41-0.14,0.59-0.24
		c0.18-0.1,0.34-0.23,0.49-0.38c0.15-0.15,0.26-0.32,0.33-0.5l0.76,0.21c-0.1,0.25-0.25,0.47-0.44,0.68
		c-0.19,0.2-0.41,0.38-0.66,0.53c-0.25,0.15-0.52,0.27-0.82,0.35C73.59,54.22,73.28,54.26,72.95,54.26z M75.42,50.43
		c-0.03-0.36-0.11-0.69-0.25-0.98c-0.14-0.3-0.32-0.55-0.54-0.77c-0.22-0.21-0.47-0.38-0.76-0.5C73.58,48.06,73.28,48,72.95,48
		c-0.33,0-0.63,0.06-0.93,0.18c-0.29,0.12-0.55,0.29-0.77,0.5c-0.22,0.21-0.39,0.47-0.53,0.77c-0.13,0.3-0.21,0.63-0.24,0.98H75.42z
		"/>
	<path class="st2" d="M83.24,54.13h-0.88v-3.74c0-0.8-0.12-1.38-0.35-1.74s-0.6-0.54-1.09-0.54c-0.26,0-0.51,0.05-0.77,0.14
		c-0.26,0.09-0.5,0.23-0.71,0.4s-0.41,0.38-0.59,0.61c-0.17,0.24-0.3,0.49-0.37,0.76v4.1h-0.88v-6.7h0.8v1.52
		c0.27-0.49,0.67-0.88,1.18-1.18c0.51-0.3,1.07-0.45,1.67-0.45c0.37,0,0.68,0.07,0.94,0.21c0.26,0.14,0.46,0.33,0.62,0.58
		c0.15,0.25,0.27,0.55,0.33,0.91c0.07,0.36,0.1,0.76,0.1,1.2V54.13z"/>
	<path class="st2" d="M88.26,53.81c-0.05,0.03-0.13,0.06-0.23,0.1s-0.21,0.09-0.34,0.13c-0.13,0.04-0.27,0.08-0.44,0.12
		c-0.16,0.03-0.33,0.05-0.51,0.05c-0.19,0-0.37-0.03-0.54-0.08c-0.17-0.05-0.32-0.13-0.45-0.24c-0.13-0.11-0.23-0.24-0.31-0.41
		c-0.08-0.16-0.12-0.35-0.12-0.57v-4.8H84.4v-0.7h0.93v-2.26h0.87v2.26h1.54v0.7H86.2v4.55c0.02,0.25,0.1,0.43,0.26,0.55
		c0.16,0.12,0.34,0.17,0.55,0.17c0.25,0,0.47-0.04,0.66-0.12s0.31-0.14,0.36-0.17L88.26,53.81z"/>
	<path class="st2" d="M92.08,54.26c-0.49,0-0.94-0.09-1.34-0.28c-0.41-0.18-0.76-0.44-1.06-0.76c-0.3-0.32-0.53-0.69-0.7-1.11
		c-0.17-0.42-0.25-0.87-0.25-1.35c0-0.47,0.08-0.92,0.25-1.33c0.17-0.42,0.4-0.78,0.69-1.09c0.3-0.31,0.65-0.56,1.06-0.75
		s0.86-0.28,1.34-0.28c0.49,0,0.94,0.09,1.34,0.28c0.41,0.18,0.76,0.44,1.05,0.75c0.29,0.32,0.52,0.68,0.68,1.09
		c0.16,0.41,0.24,0.85,0.24,1.31c0,0.07,0,0.14,0,0.21s0,0.12-0.01,0.14h-5.74c0.03,0.36,0.11,0.69,0.25,1s0.32,0.57,0.55,0.79
		c0.22,0.22,0.48,0.4,0.77,0.52c0.29,0.12,0.59,0.19,0.92,0.19c0.21,0,0.43-0.03,0.64-0.09c0.21-0.06,0.41-0.14,0.59-0.24
		c0.18-0.1,0.34-0.23,0.49-0.38c0.15-0.15,0.26-0.32,0.33-0.5l0.76,0.21c-0.1,0.25-0.25,0.47-0.44,0.68
		c-0.19,0.2-0.41,0.38-0.66,0.53c-0.25,0.15-0.52,0.27-0.82,0.35C92.72,54.22,92.41,54.26,92.08,54.26z M94.55,50.43
		c-0.03-0.36-0.11-0.69-0.25-0.98c-0.14-0.3-0.32-0.55-0.54-0.77c-0.22-0.21-0.47-0.38-0.76-0.5C92.71,48.06,92.41,48,92.08,48
		c-0.33,0-0.63,0.06-0.93,0.18c-0.29,0.12-0.55,0.29-0.77,0.5c-0.22,0.21-0.39,0.47-0.53,0.77c-0.13,0.3-0.21,0.63-0.24,0.98H94.55z
		"/>
	<path class="st2" d="M100.08,48.2c-0.59,0.02-1.11,0.18-1.54,0.49c-0.44,0.31-0.75,0.73-0.93,1.27v4.17h-0.88v-6.7h0.82v1.61
		c0.25-0.51,0.58-0.92,1-1.21c0.42-0.29,0.87-0.44,1.35-0.44c0.07,0,0.12,0,0.17,0.01V48.2z"/>
</g>
<path id="Icon_awesome-basketball-ball" class="st0" d="M558.88,6.62c-2.54,0.36-4.93,1.41-6.91,3.04l4.38,4.38
	C557.96,11.9,558.85,9.3,558.88,6.62z M560.9,18.59l8.93-8.93c-2.33-1.92-5.21-3.03-8.22-3.17c0,3.44-1.17,6.79-3.32,9.48
	L560.9,18.59z M550.05,11.59c-1.63,1.98-2.68,4.37-3.04,6.91c2.68-0.03,5.28-0.92,7.42-2.53L550.05,11.59z M565.44,23.13
	c2.7-2.14,6.04-3.31,9.48-3.32c-0.14-3.01-1.26-5.9-3.17-8.22l-8.93,8.93L565.44,23.13L565.44,23.13z M560.9,22.44l-8.93,8.93
	c2.33,1.91,5.21,3.03,8.23,3.17c0.01-3.44,1.18-6.78,3.32-9.48L560.9,22.44z M571.75,29.44c1.63-1.98,2.68-4.37,3.04-6.91
	c-2.68,0.04-5.28,0.92-7.42,2.53L571.75,29.44z M556.36,17.9c-2.69,2.15-6.04,3.32-9.48,3.32c0.14,3.01,1.26,5.9,3.17,8.22
	l8.93-8.93L556.36,17.9z M562.92,34.41c2.54-0.36,4.93-1.41,6.91-3.04l-4.37-4.38C563.85,29.13,562.96,31.73,562.92,34.41
	L562.92,34.41z"/>
<g class="st1">
	<path class="st2" d="M524.71,54v-9.13h0.9V54H524.71z"/>
	<path class="st2" d="M533.35,54h-0.88v-3.74c0-0.8-0.12-1.38-0.35-1.74c-0.24-0.36-0.6-0.54-1.09-0.54c-0.26,0-0.51,0.05-0.77,0.14
		c-0.26,0.09-0.5,0.23-0.71,0.4s-0.41,0.38-0.58,0.61c-0.17,0.24-0.3,0.49-0.37,0.76V54h-0.88v-6.7h0.8v1.52
		c0.27-0.49,0.67-0.88,1.18-1.18c0.51-0.3,1.07-0.45,1.67-0.45c0.37,0,0.68,0.07,0.94,0.21c0.26,0.14,0.46,0.33,0.62,0.58
		c0.15,0.25,0.27,0.55,0.33,0.91s0.1,0.76,0.1,1.2V54z"/>
	<path class="st2" d="M537.97,54.13c-0.46,0-0.89-0.1-1.29-0.29c-0.39-0.19-0.73-0.45-1.02-0.77c-0.28-0.32-0.5-0.68-0.66-1.1
		c-0.16-0.42-0.24-0.85-0.24-1.31c0-0.47,0.08-0.92,0.23-1.34s0.37-0.79,0.64-1.11c0.27-0.32,0.59-0.57,0.96-0.75
		s0.78-0.28,1.23-0.28c0.57,0,1.07,0.15,1.51,0.44s0.78,0.65,1.03,1.07v-4.09h0.88v8.26c0,0.24,0.1,0.36,0.31,0.36V54
		c-0.13,0.03-0.23,0.04-0.31,0.04c-0.21,0-0.39-0.07-0.54-0.2c-0.15-0.13-0.23-0.29-0.23-0.48V52.7c-0.27,0.44-0.63,0.79-1.08,1.04
		C538.93,54,538.46,54.13,537.97,54.13z M538.16,53.36c0.21,0,0.44-0.04,0.69-0.13c0.24-0.09,0.47-0.2,0.69-0.35
		c0.21-0.15,0.4-0.33,0.55-0.53c0.15-0.2,0.24-0.42,0.28-0.65v-2.07c-0.09-0.23-0.21-0.45-0.37-0.65c-0.16-0.2-0.35-0.38-0.56-0.53
		c-0.21-0.15-0.44-0.27-0.68-0.36s-0.48-0.13-0.71-0.13c-0.36,0-0.69,0.08-0.98,0.23s-0.54,0.36-0.75,0.61
		c-0.21,0.25-0.37,0.54-0.48,0.87c-0.11,0.33-0.17,0.66-0.17,1c0,0.36,0.06,0.7,0.19,1.03s0.3,0.61,0.53,0.86
		c0.22,0.24,0.49,0.44,0.79,0.58C537.48,53.29,537.81,53.36,538.16,53.36z"/>
	<path class="st2" d="M546.08,54.13c-0.49,0-0.94-0.09-1.34-0.28c-0.4-0.18-0.75-0.43-1.05-0.75s-0.53-0.69-0.69-1.11
		s-0.24-0.86-0.24-1.33c0-0.47,0.08-0.92,0.25-1.34c0.17-0.42,0.4-0.79,0.69-1.11s0.65-0.57,1.05-0.76c0.4-0.19,0.84-0.28,1.33-0.28
		c0.48,0,0.92,0.09,1.33,0.28c0.41,0.19,0.76,0.44,1.05,0.76s0.53,0.69,0.7,1.11s0.25,0.87,0.25,1.34c0,0.46-0.08,0.91-0.25,1.33
		c-0.16,0.42-0.39,0.79-0.69,1.11s-0.65,0.57-1.06,0.75C547.01,54.04,546.57,54.13,546.08,54.13z M543.65,50.68
		c0,0.38,0.06,0.73,0.19,1.05c0.13,0.32,0.3,0.6,0.52,0.85c0.22,0.25,0.48,0.44,0.77,0.57c0.3,0.14,0.61,0.21,0.95,0.21
		c0.33,0,0.65-0.07,0.95-0.21s0.56-0.33,0.78-0.58s0.4-0.53,0.53-0.86s0.19-0.68,0.19-1.05c0-0.37-0.06-0.72-0.19-1.05
		s-0.3-0.62-0.53-0.86c-0.22-0.24-0.48-0.44-0.78-0.58c-0.3-0.14-0.61-0.21-0.95-0.21c-0.33,0-0.65,0.07-0.94,0.21
		c-0.29,0.14-0.55,0.34-0.77,0.58c-0.22,0.25-0.4,0.54-0.53,0.87C543.71,49.95,543.65,50.3,543.65,50.68z"/>
	<path class="st2" d="M553.73,54.13c-0.49,0-0.94-0.09-1.34-0.28c-0.4-0.18-0.75-0.43-1.05-0.75s-0.53-0.69-0.69-1.11
		s-0.24-0.86-0.24-1.33c0-0.47,0.08-0.92,0.25-1.34c0.17-0.42,0.4-0.79,0.69-1.11s0.65-0.57,1.05-0.76c0.4-0.19,0.84-0.28,1.33-0.28
		c0.48,0,0.92,0.09,1.33,0.28c0.41,0.19,0.76,0.44,1.05,0.76s0.53,0.69,0.7,1.11s0.25,0.87,0.25,1.34c0,0.46-0.08,0.91-0.25,1.33
		c-0.16,0.42-0.39,0.79-0.69,1.11s-0.65,0.57-1.06,0.75C554.67,54.04,554.22,54.13,553.73,54.13z M551.3,50.68
		c0,0.38,0.06,0.73,0.19,1.05c0.13,0.32,0.3,0.6,0.52,0.85c0.22,0.25,0.48,0.44,0.77,0.57c0.3,0.14,0.61,0.21,0.95,0.21
		c0.33,0,0.65-0.07,0.95-0.21s0.56-0.33,0.78-0.58s0.4-0.53,0.53-0.86s0.19-0.68,0.19-1.05c0-0.37-0.06-0.72-0.19-1.05
		s-0.3-0.62-0.53-0.86c-0.22-0.24-0.48-0.44-0.78-0.58c-0.3-0.14-0.61-0.21-0.95-0.21c-0.33,0-0.65,0.07-0.94,0.21
		c-0.29,0.14-0.55,0.34-0.77,0.58c-0.22,0.25-0.4,0.54-0.53,0.87C551.36,49.95,551.3,50.3,551.3,50.68z"/>
	<path class="st2" d="M561.87,48.07c-0.59,0.02-1.11,0.18-1.54,0.49c-0.44,0.31-0.75,0.73-0.93,1.27V54h-0.88v-6.7h0.82v1.61
		c0.25-0.51,0.58-0.92,1-1.21c0.42-0.29,0.87-0.44,1.35-0.44c0.07,0,0.12,0,0.17,0.01V48.07z"/>
	<path class="st2" d="M565.59,49.37c0-0.55,0.1-1.1,0.29-1.64c0.19-0.54,0.47-1.03,0.84-1.46c0.37-0.43,0.82-0.78,1.36-1.05
		c0.54-0.27,1.15-0.41,1.84-0.41c0.81,0,1.51,0.18,2.09,0.55c0.58,0.37,1,0.85,1.28,1.44l-0.71,0.44c-0.15-0.3-0.32-0.55-0.53-0.76
		c-0.21-0.21-0.44-0.37-0.67-0.5c-0.24-0.13-0.49-0.22-0.75-0.28c-0.26-0.06-0.51-0.08-0.76-0.08c-0.55,0-1.03,0.11-1.45,0.33
		c-0.42,0.22-0.77,0.51-1.06,0.88c-0.29,0.36-0.5,0.77-0.65,1.22c-0.15,0.45-0.22,0.91-0.22,1.37c0,0.51,0.09,0.99,0.26,1.45
		c0.17,0.46,0.42,0.87,0.72,1.23c0.3,0.36,0.67,0.64,1.08,0.85c0.42,0.21,0.87,0.32,1.36,0.32c0.26,0,0.52-0.03,0.79-0.1
		s0.53-0.17,0.79-0.31c0.25-0.14,0.49-0.32,0.7-0.53c0.21-0.21,0.39-0.46,0.54-0.77l0.75,0.39c-0.15,0.34-0.35,0.65-0.62,0.91
		c-0.27,0.26-0.56,0.48-0.89,0.66c-0.33,0.18-0.67,0.32-1.04,0.41c-0.36,0.09-0.72,0.14-1.07,0.14c-0.63,0-1.2-0.14-1.72-0.41
		c-0.52-0.27-0.97-0.63-1.35-1.07c-0.38-0.44-0.67-0.94-0.88-1.5S565.59,49.95,565.59,49.37z"/>
	<path class="st2" d="M577.7,54.13c-0.49,0-0.94-0.09-1.34-0.28c-0.4-0.18-0.75-0.43-1.05-0.75s-0.53-0.69-0.69-1.11
		s-0.24-0.86-0.24-1.33c0-0.47,0.08-0.92,0.25-1.34c0.17-0.42,0.4-0.79,0.69-1.11s0.65-0.57,1.05-0.76c0.4-0.19,0.84-0.28,1.33-0.28
		c0.48,0,0.92,0.09,1.33,0.28c0.41,0.19,0.76,0.44,1.05,0.76s0.53,0.69,0.7,1.11s0.25,0.87,0.25,1.34c0,0.46-0.08,0.91-0.25,1.33
		c-0.16,0.42-0.39,0.79-0.69,1.11s-0.65,0.57-1.06,0.75C578.64,54.04,578.19,54.13,577.7,54.13z M575.27,50.68
		c0,0.38,0.06,0.73,0.19,1.05c0.13,0.32,0.3,0.6,0.52,0.85c0.22,0.25,0.48,0.44,0.77,0.57c0.3,0.14,0.61,0.21,0.95,0.21
		c0.33,0,0.65-0.07,0.95-0.21s0.56-0.33,0.78-0.58s0.4-0.53,0.53-0.86s0.19-0.68,0.19-1.05c0-0.37-0.06-0.72-0.19-1.05
		s-0.3-0.62-0.53-0.86c-0.22-0.24-0.48-0.44-0.78-0.58c-0.3-0.14-0.61-0.21-0.95-0.21c-0.33,0-0.65,0.07-0.94,0.21
		c-0.29,0.14-0.55,0.34-0.77,0.58c-0.22,0.25-0.4,0.54-0.53,0.87C575.33,49.95,575.27,50.3,575.27,50.68z"/>
	<path class="st2" d="M584.59,54.13c-0.73,0-1.27-0.24-1.63-0.73c-0.36-0.48-0.53-1.21-0.53-2.17V47.3h0.88v3.78
		c0,1.52,0.52,2.28,1.56,2.28c0.26,0,0.51-0.04,0.76-0.13c0.25-0.09,0.48-0.21,0.69-0.37c0.21-0.16,0.4-0.36,0.57-0.58
		c0.17-0.22,0.3-0.48,0.41-0.76V47.3h0.88v5.57c0,0.24,0.1,0.36,0.31,0.36V54c-0.1,0.02-0.19,0.03-0.25,0.03s-0.11,0-0.13,0
		c-0.21-0.01-0.37-0.08-0.5-0.22c-0.13-0.14-0.19-0.32-0.19-0.55v-0.77c-0.29,0.52-0.69,0.93-1.19,1.22
		C585.69,53.99,585.16,54.13,584.59,54.13z"/>
	<path class="st2" d="M593.48,48.07c-0.59,0.02-1.11,0.18-1.54,0.49c-0.44,0.31-0.75,0.73-0.93,1.27V54h-0.88v-6.7h0.82v1.61
		c0.25-0.51,0.58-0.92,1-1.21c0.42-0.29,0.87-0.44,1.35-0.44c0.07,0,0.12,0,0.17,0.01V48.07z"/>
	<path class="st2" d="M597.87,53.68c-0.05,0.03-0.13,0.06-0.23,0.1s-0.21,0.09-0.34,0.13s-0.27,0.08-0.44,0.12s-0.33,0.05-0.51,0.05
		c-0.19,0-0.37-0.03-0.54-0.08c-0.17-0.05-0.32-0.13-0.45-0.24c-0.13-0.11-0.23-0.24-0.31-0.41c-0.08-0.16-0.12-0.35-0.12-0.57v-4.8
		h-0.93v-0.7h0.93v-2.26h0.88v2.26h1.54v0.7h-1.54v4.55c0.02,0.25,0.1,0.43,0.26,0.55c0.16,0.12,0.34,0.17,0.55,0.17
		c0.25,0,0.47-0.04,0.66-0.12c0.19-0.08,0.31-0.14,0.36-0.17L597.87,53.68z"/>
</g>
</svg>
