<?xml version="1.0" encoding="utf-8"?>
<!-- Generator: Adobe Illustrator 23.0.6, SVG Export Plug-In . SVG Version: 6.00 Build 0)  -->
<svg version="1.1" id="Layer_1" xmlns="http://www.w3.org/2000/svg" xmlns:xlink="http://www.w3.org/1999/xlink" x="0px" y="0px"
	 viewBox="0 0 300 153.55" style="enable-background:new 0 0 300 153.55;" xml:space="preserve">
<style type="text/css">
	.st0{fill:#3C3B3A;}
	.st1{enable-background:new    ;}
	.st2{fill:#26A682;}
</style>
<path id="Icon_awesome-bowling-ball" class="st0" d="M65,87.71c-8.73,0-15.8,7.07-15.8,15.8c0,8.73,7.07,15.8,15.8,15.8
	s15.8-7.07,15.8-15.8c0,0,0,0,0,0C80.8,94.78,73.73,87.71,65,87.71C65,87.71,65,87.71,65,87.71z M56.84,99.43
	c-1.13,0-2.04-0.91-2.04-2.04s0.91-2.04,2.04-2.04c1.13,0,2.04,0.91,2.04,2.04C58.88,98.52,57.97,99.43,56.84,99.43
	C56.84,99.43,56.84,99.43,56.84,99.43L56.84,99.43z M60.92,93.32c0-1.13,0.91-2.04,2.04-2.04c1.13,0,2.04,0.91,2.04,2.04
	c0,1.13-0.91,2.04-2.04,2.04c0,0,0,0,0,0C61.83,95.35,60.92,94.44,60.92,93.32C60.92,93.32,60.92,93.32,60.92,93.32L60.92,93.32z
	 M63.98,102.49c-1.13,0-2.04-0.91-2.04-2.04c0-1.13,0.91-2.04,2.04-2.04c1.13,0,2.04,0.91,2.04,2.04l0,0
	C66.02,101.58,65.11,102.49,63.98,102.49C63.98,102.49,63.98,102.49,63.98,102.49L63.98,102.49z"/>
<g class="st1">
	<path class="st2" d="M46.45,138.6c0,0.39-0.08,0.74-0.23,1.07c-0.15,0.32-0.36,0.6-0.62,0.84c-0.26,0.24-0.57,0.42-0.91,0.55
		c-0.35,0.13-0.72,0.2-1.12,0.2H38.7v-10.3h4.96c0.36,0,0.68,0.08,0.97,0.23c0.29,0.16,0.54,0.36,0.74,0.6
		c0.2,0.25,0.36,0.53,0.47,0.84c0.11,0.31,0.17,0.63,0.17,0.95c0,0.52-0.13,1-0.39,1.43c-0.26,0.43-0.62,0.75-1.09,0.96
		c0.59,0.17,1.06,0.5,1.4,0.97C46.27,137.42,46.45,137.97,46.45,138.6z M39.72,131.85v3.8h3.54c0.25,0,0.49-0.05,0.7-0.16
		c0.22-0.11,0.4-0.25,0.56-0.42c0.15-0.17,0.28-0.38,0.36-0.6c0.09-0.23,0.13-0.47,0.13-0.72c0-0.26-0.04-0.51-0.12-0.74
		c-0.08-0.23-0.2-0.43-0.35-0.6c-0.15-0.17-0.33-0.3-0.53-0.41c-0.2-0.1-0.43-0.15-0.67-0.15H39.72z M45.43,138.43
		c0-0.25-0.04-0.5-0.13-0.73s-0.21-0.44-0.37-0.62c-0.16-0.18-0.35-0.32-0.57-0.43s-0.45-0.17-0.7-0.17h-3.94v3.9h3.84
		c0.26,0,0.5-0.05,0.73-0.16c0.23-0.11,0.43-0.25,0.59-0.43c0.17-0.18,0.3-0.39,0.4-0.62C45.38,138.92,45.43,138.68,45.43,138.43z"
		/>
	<path class="st2" d="M51.37,141.4c-0.55,0-1.05-0.1-1.51-0.31c-0.45-0.21-0.85-0.49-1.18-0.85s-0.59-0.77-0.78-1.25
		c-0.18-0.47-0.28-0.97-0.28-1.49c0-0.53,0.09-1.03,0.28-1.51c0.19-0.47,0.45-0.89,0.78-1.25s0.73-0.64,1.18-0.86
		c0.45-0.21,0.95-0.32,1.49-0.32s1.04,0.11,1.5,0.32c0.46,0.21,0.86,0.5,1.19,0.86s0.59,0.77,0.78,1.25
		c0.19,0.47,0.28,0.98,0.28,1.51c0,0.52-0.09,1.02-0.28,1.49c-0.18,0.47-0.44,0.89-0.78,1.25s-0.73,0.64-1.19,0.85
		C52.43,141.3,51.93,141.4,51.37,141.4z M48.63,137.51c0,0.43,0.07,0.82,0.22,1.18c0.14,0.36,0.34,0.68,0.59,0.96
		c0.25,0.28,0.54,0.49,0.87,0.65c0.33,0.15,0.69,0.23,1.07,0.23c0.38,0,0.73-0.08,1.07-0.24s0.63-0.38,0.88-0.65
		c0.25-0.28,0.45-0.6,0.59-0.96c0.15-0.37,0.22-0.76,0.22-1.19c0-0.42-0.07-0.81-0.22-1.18c-0.14-0.37-0.34-0.7-0.59-0.97
		c-0.25-0.28-0.54-0.49-0.88-0.65c-0.33-0.16-0.69-0.24-1.07-0.24c-0.38,0-0.73,0.08-1.06,0.24c-0.33,0.16-0.62,0.38-0.87,0.66
		c-0.25,0.28-0.45,0.61-0.59,0.98C48.71,136.69,48.63,137.09,48.63,137.51z"/>
	<path class="st2" d="M66.02,133.7h0.97l-3.25,7.56h-0.81l-1.62-3.86l-1.61,3.86h-0.81l-3.25-7.56h0.96l2.76,6.54l1.44-3.45
		l-1.29-3.07h0.83l0.99,2.47l0.99-2.47h0.84l-1.29,3.07l1.44,3.45L66.02,133.7z"/>
	<path class="st2" d="M68.34,130.67h0.99v8.87c0,0.28,0.08,0.5,0.23,0.66c0.15,0.16,0.37,0.24,0.65,0.24c0.11,0,0.23-0.01,0.38-0.04
		c0.15-0.03,0.28-0.07,0.41-0.12l0.17,0.8c-0.18,0.08-0.41,0.14-0.67,0.19c-0.27,0.05-0.5,0.07-0.69,0.07
		c-0.45,0-0.81-0.13-1.07-0.38c-0.26-0.26-0.39-0.62-0.39-1.08V130.67z"/>
	<path class="st2" d="M72.24,132.12v-1.45h0.99v1.45H72.24z M72.24,141.26v-7.56h0.99v7.56H72.24z"/>
	<path class="st2" d="M81.75,141.26h-0.99v-4.22c0-0.9-0.13-1.55-0.4-1.96s-0.67-0.61-1.23-0.61c-0.29,0-0.58,0.05-0.87,0.16
		c-0.29,0.11-0.56,0.26-0.8,0.45c-0.25,0.19-0.47,0.42-0.66,0.69c-0.19,0.27-0.33,0.55-0.42,0.86v4.63H75.4v-7.56h0.9v1.71
		c0.31-0.55,0.75-1,1.33-1.33c0.57-0.34,1.2-0.51,1.88-0.51c0.42,0,0.77,0.08,1.06,0.23c0.29,0.15,0.52,0.37,0.7,0.65
		c0.17,0.28,0.3,0.62,0.38,1.03c0.08,0.41,0.12,0.86,0.12,1.35V141.26z"/>
	<path class="st2" d="M86.89,141.36c-0.52,0-1-0.11-1.43-0.33c-0.43-0.22-0.8-0.51-1.12-0.86c-0.31-0.36-0.56-0.77-0.73-1.23
		c-0.17-0.46-0.26-0.94-0.26-1.44c0-0.52,0.08-1.02,0.25-1.5c0.17-0.48,0.41-0.9,0.72-1.25s0.68-0.64,1.11-0.86
		c0.43-0.21,0.91-0.32,1.43-0.32c0.65,0,1.21,0.16,1.68,0.49c0.47,0.32,0.88,0.73,1.22,1.23v-1.58h0.88v7.58
		c0,0.52-0.1,0.98-0.3,1.38c-0.2,0.4-0.46,0.74-0.8,1.01s-0.73,0.47-1.17,0.61c-0.45,0.14-0.93,0.2-1.43,0.2
		c-0.87,0-1.57-0.16-2.1-0.46c-0.53-0.31-0.96-0.72-1.29-1.25l0.61-0.48c0.3,0.48,0.7,0.84,1.19,1.07c0.49,0.23,1.02,0.34,1.59,0.34
		c0.37,0,0.72-0.05,1.04-0.15c0.33-0.1,0.62-0.25,0.86-0.45c0.25-0.2,0.44-0.45,0.59-0.75c0.15-0.3,0.22-0.66,0.22-1.07v-1.49
		c-0.29,0.48-0.69,0.87-1.19,1.15C87.96,141.22,87.44,141.36,86.89,141.36z M87.16,140.53c0.29,0,0.58-0.05,0.86-0.16
		c0.28-0.11,0.53-0.25,0.76-0.43c0.23-0.18,0.42-0.38,0.57-0.6c0.15-0.22,0.26-0.45,0.3-0.68v-2.33c-0.11-0.27-0.25-0.52-0.43-0.75
		c-0.18-0.23-0.39-0.43-0.62-0.59c-0.23-0.17-0.48-0.29-0.75-0.39c-0.27-0.1-0.53-0.15-0.8-0.15c-0.43,0-0.81,0.09-1.14,0.27
		s-0.62,0.41-0.85,0.7c-0.23,0.29-0.41,0.62-0.53,0.99c-0.12,0.37-0.18,0.74-0.18,1.12c0,0.41,0.07,0.79,0.22,1.16
		c0.15,0.37,0.35,0.69,0.6,0.96c0.26,0.28,0.55,0.49,0.89,0.65S86.77,140.53,87.16,140.53z"/>
</g>
<path id="Icon_map-climbing" class="st0" d="M218.98,21.16c-0.22,0.46-0.34,0.96-0.34,1.48l0.13,7.91l-2.74,5.89
	c-0.46,0.87-0.14,1.95,0.73,2.41c0.86,0.46,1.92,0.15,2.4-0.7l3.02-6.43c0.07-0.15,0.12-0.31,0.14-0.48l0.02-0.24l-0.02-4.89
	l4.64,2.02l0.75,4.78c0.22,0.96,1.18,1.57,2.14,1.35c0.71-0.16,1.26-0.74,1.37-1.46c0.02-0.16,0.02-0.32,0.01-0.49l-0.91-5.77
	c-0.11-0.56-0.48-1.04-1-1.28l-4.15-1.84l2.64-4.58l1.31,1.66c0.14,0.15,0.31,0.28,0.5,0.35l4.99,1.45c0.76,0.17,1.5-0.31,1.67-1.07
	c0.15-0.67-0.21-1.34-0.84-1.6l-0.07-0.02l-4.34-1.27l-3.26-3.9c-0.5-0.54-1.17-0.89-1.9-1.01c-1.28-0.19-2.56,0.4-3.24,1.5
	L218.98,21.16z M233.3,32.51l-0.32,2.37l-8.58,2.08l0.08,1.47h20.94c0.74,0,1.34-0.59,1.34-1.33c0,0,0,0,0,0l-0.02-28.1l-2.87-0.67
	l-1.65,7.39l-2.76,1.15l-2.45,6.81l2.33,5.21l-0.65,2L233.3,32.51z M227.47,13.08c1.47-0.01,2.66-1.2,2.65-2.67
	c-0.01-1.47-1.2-2.66-2.67-2.65c-1.47,0.01-2.65,1.2-2.65,2.66C224.8,11.89,226,13.08,227.47,13.08z M222.15,13.49
	c0.21-0.36,0.08-0.82-0.28-1.03c0,0,0,0,0,0l-1.3-0.75c-0.37-0.21-0.84-0.08-1.05,0.28l-3.99,6.85c-0.21,0.36-0.09,0.83,0.28,1.04
	c0,0,0,0,0.01,0l1.3,0.75c0.36,0.21,0.83,0.09,1.04-0.27L222.15,13.49z"/>
<g class="st1">
	<path class="st2" d="M183.25,61.3v-10.3h4.35c0.44,0,0.85,0.09,1.23,0.28c0.37,0.19,0.69,0.44,0.96,0.74
		c0.27,0.3,0.48,0.65,0.63,1.04c0.15,0.39,0.22,0.78,0.22,1.17c0,0.38-0.06,0.74-0.17,1.08s-0.27,0.65-0.46,0.93
		c-0.2,0.28-0.44,0.51-0.72,0.7c-0.28,0.19-0.59,0.32-0.94,0.38l2.52,3.97h-1.15l-2.42-3.8h-3.04v3.8H183.25z M184.27,56.6h3.36
		c0.3,0,0.57-0.07,0.82-0.2c0.25-0.13,0.46-0.31,0.63-0.53c0.18-0.22,0.31-0.47,0.41-0.75s0.15-0.58,0.15-0.88s-0.06-0.61-0.17-0.89
		c-0.11-0.29-0.26-0.53-0.45-0.75c-0.19-0.21-0.41-0.38-0.67-0.51c-0.26-0.13-0.52-0.19-0.8-0.19h-3.28V56.6z"/>
	<path class="st2" d="M195.52,61.45c-0.55,0-1.05-0.1-1.51-0.31c-0.45-0.21-0.85-0.49-1.18-0.85c-0.33-0.36-0.59-0.77-0.78-1.25
		c-0.18-0.47-0.28-0.97-0.28-1.49c0-0.53,0.09-1.03,0.28-1.51c0.19-0.47,0.45-0.89,0.78-1.25s0.73-0.64,1.18-0.86
		c0.45-0.21,0.95-0.32,1.49-0.32c0.54,0,1.04,0.11,1.5,0.32c0.46,0.21,0.86,0.5,1.19,0.86s0.6,0.77,0.78,1.25s0.28,0.98,0.28,1.51
		c0,0.52-0.09,1.02-0.28,1.49c-0.18,0.47-0.44,0.89-0.77,1.25c-0.33,0.36-0.73,0.64-1.19,0.85
		C196.58,61.34,196.07,61.45,195.52,61.45z M192.78,57.56c0,0.43,0.07,0.82,0.22,1.18c0.15,0.36,0.34,0.68,0.59,0.96
		c0.25,0.28,0.54,0.49,0.87,0.65c0.33,0.15,0.69,0.23,1.07,0.23c0.38,0,0.73-0.08,1.07-0.24c0.33-0.16,0.63-0.38,0.88-0.65
		c0.25-0.28,0.45-0.6,0.59-0.96c0.15-0.37,0.22-0.76,0.22-1.19c0-0.42-0.07-0.81-0.22-1.18s-0.34-0.7-0.59-0.97
		c-0.25-0.28-0.54-0.49-0.88-0.65c-0.33-0.16-0.69-0.24-1.07-0.24c-0.38,0-0.73,0.08-1.06,0.24c-0.33,0.16-0.62,0.38-0.87,0.66
		c-0.25,0.28-0.45,0.61-0.6,0.98C192.85,56.74,192.78,57.14,192.78,57.56z"/>
	<path class="st2" d="M200.41,57.5c0-0.53,0.09-1.03,0.28-1.51c0.18-0.47,0.44-0.89,0.78-1.24s0.73-0.63,1.2-0.83
		c0.46-0.2,0.98-0.3,1.54-0.3c0.72,0,1.34,0.16,1.87,0.49c0.53,0.32,0.93,0.76,1.2,1.31l-0.96,0.3c-0.21-0.39-0.51-0.69-0.89-0.91
		c-0.38-0.22-0.8-0.33-1.27-0.33c-0.39,0-0.75,0.08-1.08,0.23c-0.33,0.16-0.62,0.37-0.87,0.63c-0.25,0.27-0.44,0.58-0.58,0.95
		c-0.14,0.37-0.21,0.77-0.21,1.2c0,0.43,0.07,0.83,0.22,1.2c0.15,0.38,0.34,0.7,0.6,0.98c0.25,0.28,0.54,0.49,0.88,0.65
		c0.33,0.16,0.69,0.24,1.07,0.24c0.24,0,0.48-0.03,0.72-0.1c0.24-0.07,0.46-0.16,0.66-0.28c0.2-0.12,0.38-0.26,0.52-0.41
		c0.14-0.16,0.25-0.32,0.3-0.49l0.97,0.29c-0.11,0.27-0.26,0.52-0.46,0.75c-0.2,0.23-0.44,0.42-0.72,0.59
		c-0.28,0.17-0.58,0.3-0.91,0.39c-0.33,0.09-0.68,0.14-1.04,0.14c-0.55,0-1.06-0.1-1.52-0.31c-0.46-0.21-0.87-0.49-1.2-0.86
		c-0.34-0.36-0.6-0.78-0.79-1.25C200.5,58.55,200.41,58.04,200.41,57.5z"/>
	<path class="st2" d="M214.29,61.3l-2.78-3.87l-1.62,1.51v2.36h-0.99V50.72h0.99v7.19l4.25-4.15h1.12l-3.09,3.09l3.21,4.45H214.29z"
		/>
	<path class="st2" d="M219.79,56.08c0-0.62,0.11-1.23,0.33-1.85c0.22-0.61,0.53-1.16,0.95-1.65c0.41-0.48,0.93-0.88,1.54-1.18
		c0.61-0.3,1.3-0.46,2.07-0.46c0.92,0,1.7,0.21,2.36,0.62c0.65,0.42,1.13,0.96,1.44,1.62l-0.8,0.49c-0.16-0.34-0.37-0.62-0.6-0.86
		c-0.24-0.23-0.49-0.42-0.76-0.56c-0.27-0.15-0.55-0.25-0.84-0.31c-0.29-0.06-0.58-0.09-0.86-0.09c-0.62,0-1.16,0.13-1.64,0.38
		c-0.47,0.25-0.87,0.58-1.2,0.99c-0.32,0.41-0.57,0.86-0.73,1.37c-0.16,0.51-0.25,1.02-0.25,1.54c0,0.57,0.1,1.12,0.3,1.64
		c0.2,0.52,0.47,0.98,0.81,1.38c0.34,0.4,0.75,0.72,1.22,0.96c0.47,0.24,0.98,0.36,1.53,0.36c0.29,0,0.59-0.04,0.89-0.11
		c0.3-0.07,0.6-0.19,0.88-0.35c0.29-0.16,0.55-0.36,0.79-0.59c0.24-0.24,0.44-0.52,0.61-0.86l0.84,0.43
		c-0.16,0.39-0.4,0.73-0.7,1.02c-0.3,0.29-0.63,0.54-1,0.75c-0.37,0.2-0.76,0.36-1.17,0.46c-0.41,0.11-0.81,0.16-1.21,0.16
		c-0.71,0-1.35-0.15-1.94-0.46c-0.59-0.31-1.1-0.71-1.52-1.21c-0.43-0.5-0.76-1.06-0.99-1.7S219.79,56.74,219.79,56.08z"/>
	<path class="st2" d="M230.26,50.72h0.99v8.87c0,0.28,0.08,0.5,0.23,0.66c0.16,0.16,0.37,0.24,0.65,0.24c0.11,0,0.23-0.01,0.38-0.04
		c0.14-0.03,0.28-0.07,0.41-0.12l0.18,0.8c-0.18,0.08-0.41,0.14-0.67,0.19c-0.27,0.05-0.5,0.07-0.69,0.07
		c-0.45,0-0.81-0.13-1.07-0.38s-0.39-0.62-0.39-1.08V50.72z"/>
	<path class="st2" d="M234.16,52.17v-1.45h0.99v1.45H234.16z M234.16,61.3v-7.56h0.99v7.56H234.16z"/>
	<path class="st2" d="M248.56,61.3h-0.99v-4.22c0-0.88-0.14-1.53-0.42-1.94c-0.28-0.42-0.7-0.62-1.25-0.62
		c-0.29,0-0.56,0.05-0.82,0.16c-0.26,0.11-0.49,0.26-0.71,0.45c-0.22,0.19-0.41,0.42-0.57,0.69c-0.17,0.27-0.29,0.56-0.38,0.88v4.61
		h-0.99v-4.22c0-0.9-0.14-1.55-0.41-1.96c-0.27-0.41-0.69-0.61-1.25-0.61c-0.57,0-1.08,0.2-1.52,0.59c-0.44,0.4-0.76,0.92-0.96,1.57
		v4.63h-0.99v-7.56h0.9v1.71c0.31-0.58,0.72-1.03,1.22-1.36c0.5-0.32,1.06-0.49,1.67-0.49c0.64,0,1.15,0.18,1.53,0.54
		s0.62,0.83,0.7,1.41c0.71-1.3,1.68-1.94,2.91-1.94c0.43,0,0.79,0.08,1.08,0.23c0.29,0.15,0.53,0.37,0.71,0.66
		c0.18,0.29,0.31,0.63,0.39,1.03c0.08,0.4,0.12,0.85,0.12,1.34V61.3z"/>
	<path class="st2" d="M254.35,61.45c-0.6,0-1.15-0.15-1.65-0.45c-0.5-0.3-0.89-0.69-1.17-1.16v1.47h-0.88V50.72h0.99v4.61
		c0.34-0.51,0.74-0.93,1.22-1.24c0.47-0.31,1.02-0.47,1.65-0.47c0.53,0,1.01,0.11,1.43,0.33c0.42,0.22,0.78,0.52,1.07,0.89
		s0.52,0.79,0.68,1.26c0.16,0.47,0.24,0.95,0.24,1.44c0,0.53-0.09,1.03-0.28,1.51c-0.18,0.47-0.43,0.89-0.75,1.24
		c-0.32,0.35-0.7,0.63-1.14,0.84C255.32,61.34,254.85,61.45,254.35,61.45z M254.12,60.58c0.41,0,0.79-0.08,1.14-0.25
		c0.34-0.17,0.64-0.4,0.88-0.68c0.25-0.29,0.44-0.61,0.58-0.97c0.14-0.36,0.21-0.74,0.21-1.12c0-0.4-0.06-0.78-0.19-1.15
		c-0.13-0.37-0.31-0.69-0.55-0.98c-0.24-0.29-0.52-0.51-0.86-0.68c-0.33-0.17-0.7-0.25-1.1-0.25c-0.3,0-0.58,0.05-0.84,0.15
		c-0.26,0.1-0.5,0.24-0.73,0.41c-0.22,0.17-0.42,0.37-0.59,0.6c-0.17,0.23-0.32,0.47-0.43,0.72v2.35c0.04,0.26,0.14,0.51,0.31,0.73
		c0.17,0.23,0.37,0.42,0.61,0.59c0.24,0.16,0.49,0.29,0.77,0.39C253.6,60.53,253.87,60.58,254.12,60.58z"/>
	<path class="st2" d="M259.6,52.17v-1.45h0.99v1.45H259.6z M259.6,61.3v-7.56h0.99v7.56H259.6z"/>
	<path class="st2" d="M269.11,61.3h-0.99v-4.22c0-0.9-0.13-1.55-0.4-1.96c-0.27-0.41-0.67-0.61-1.23-0.61
		c-0.29,0-0.58,0.05-0.87,0.16c-0.29,0.11-0.56,0.26-0.81,0.45c-0.25,0.19-0.47,0.42-0.66,0.69c-0.19,0.27-0.33,0.55-0.42,0.86v4.63
		h-0.99v-7.56h0.9v1.71c0.31-0.55,0.75-1,1.33-1.33c0.58-0.34,1.2-0.51,1.88-0.51c0.42,0,0.77,0.08,1.06,0.23
		c0.29,0.15,0.52,0.37,0.7,0.65c0.17,0.28,0.3,0.62,0.38,1.03c0.08,0.41,0.12,0.86,0.12,1.35V61.3z"/>
	<path class="st2" d="M274.24,61.4c-0.52,0-1-0.11-1.43-0.33c-0.43-0.22-0.8-0.51-1.12-0.86c-0.31-0.36-0.56-0.77-0.73-1.23
		c-0.17-0.46-0.26-0.94-0.26-1.44c0-0.52,0.08-1.02,0.25-1.5c0.17-0.48,0.41-0.9,0.72-1.25c0.31-0.36,0.68-0.64,1.11-0.86
		c0.43-0.21,0.91-0.32,1.43-0.32c0.65,0,1.21,0.16,1.68,0.49s0.88,0.73,1.22,1.23v-1.58H278v7.58c0,0.52-0.1,0.98-0.3,1.38
		c-0.2,0.4-0.46,0.74-0.8,1.01c-0.33,0.27-0.73,0.47-1.17,0.61c-0.45,0.14-0.93,0.2-1.43,0.2c-0.87,0-1.57-0.16-2.1-0.46
		c-0.53-0.31-0.96-0.72-1.29-1.25l0.61-0.48c0.3,0.48,0.7,0.84,1.19,1.07c0.49,0.23,1.02,0.34,1.59,0.34c0.37,0,0.72-0.05,1.04-0.15
		c0.33-0.1,0.62-0.25,0.86-0.45c0.25-0.2,0.44-0.45,0.59-0.75c0.15-0.3,0.22-0.66,0.22-1.07v-1.49c-0.29,0.48-0.69,0.87-1.19,1.15
		C275.32,61.26,274.79,61.4,274.24,61.4z M274.52,60.58c0.29,0,0.57-0.05,0.86-0.16c0.28-0.11,0.53-0.25,0.76-0.43
		c0.23-0.18,0.42-0.38,0.57-0.6c0.15-0.22,0.26-0.45,0.3-0.68v-2.33c-0.11-0.27-0.25-0.52-0.44-0.75c-0.18-0.23-0.39-0.43-0.62-0.59
		c-0.23-0.17-0.48-0.29-0.75-0.39c-0.27-0.1-0.53-0.15-0.81-0.15c-0.42,0-0.8,0.09-1.14,0.27c-0.33,0.18-0.62,0.41-0.85,0.7
		c-0.23,0.29-0.41,0.62-0.53,0.99c-0.12,0.37-0.18,0.74-0.18,1.12c0,0.41,0.07,0.79,0.22,1.16c0.14,0.37,0.34,0.69,0.6,0.96
		c0.26,0.28,0.55,0.49,0.89,0.65C273.76,60.5,274.12,60.58,274.52,60.58z"/>
</g>
<path id="Icon_map-gym" class="st0" d="M61.43,35.06c0.24,0.26,0.23,0.68-0.03,0.92l-1.42,1.33c-0.26,0.24-0.68,0.23-0.92-0.03
	l-8.25-8.9c-0.24-0.27-0.23-0.68,0.03-0.92l1.42-1.32c0.26-0.24,0.68-0.23,0.92,0.03L61.43,35.06z M71.96,18.32
	c0.24,0.27,0.23,0.68-0.03,0.92l-8.92,8.33c-0.26,0.24-0.68,0.23-0.92-0.03l-2.13-2.3c-0.24-0.27-0.23-0.68,0.03-0.92l8.92-8.33
	c0.26-0.24,0.67-0.23,0.92,0.03c0,0,0,0,0,0C69.83,16.02,71.96,18.32,71.96,18.32z M64.46,32.22c0.24,0.27,0.23,0.68-0.03,0.92
	l-1.42,1.33c-0.26,0.24-0.68,0.23-0.92-0.03l-8.25-8.9c-0.24-0.26-0.23-0.68,0.03-0.92l1.42-1.32c0.26-0.24,0.68-0.23,0.92,0.03
	L64.46,32.22z M78.21,18.64c0.24,0.27,0.23,0.68-0.03,0.92l-1.42,1.32c-0.26,0.25-0.68,0.23-0.92-0.03l-8.25-8.89
	c-0.25-0.26-0.23-0.68,0.03-0.92l1.42-1.33c0.26-0.24,0.67-0.23,0.92,0.03c0,0,0,0,0,0L78.21,18.64L78.21,18.64z M81.24,15.8
	c0.24,0.27,0.23,0.68-0.03,0.92l-1.42,1.32c-0.26,0.25-0.67,0.23-0.92-0.03c0,0,0,0,0,0l-8.25-8.89c-0.24-0.27-0.23-0.68,0.03-0.92
	l1.42-1.33c0.26-0.24,0.67-0.23,0.92,0.03c0,0,0,0,0,0L81.24,15.8z"/>
<g class="st1">
	<path class="st2" d="M19.26,59.13v-10.3h6.76v0.9h-5.74v3.79h4.84v0.84h-4.84v4.77H19.26z"/>
	<path class="st2" d="M27.6,49.99v-1.45h0.99v1.45H27.6z M27.6,59.13v-7.56h0.99v7.56H27.6z"/>
	<path class="st2" d="M34.39,58.77c-0.06,0.03-0.14,0.07-0.25,0.12c-0.11,0.05-0.24,0.1-0.38,0.15c-0.15,0.05-0.31,0.09-0.49,0.13
		c-0.18,0.04-0.38,0.06-0.58,0.06c-0.21,0-0.42-0.03-0.61-0.09c-0.19-0.06-0.36-0.15-0.51-0.27c-0.14-0.12-0.26-0.27-0.35-0.46
		c-0.09-0.18-0.13-0.4-0.13-0.64v-5.41h-1.04v-0.78h1.04v-2.55h0.99v2.55h1.74v0.78h-1.74v5.13c0.02,0.28,0.12,0.49,0.3,0.62
		c0.18,0.13,0.38,0.2,0.62,0.2c0.28,0,0.53-0.05,0.74-0.14c0.21-0.09,0.35-0.16,0.41-0.2L34.39,58.77z"/>
	<path class="st2" d="M41.97,59.13h-0.99v-4.22c0-0.9-0.13-1.55-0.4-1.96c-0.27-0.41-0.67-0.61-1.23-0.61
		c-0.29,0-0.58,0.05-0.87,0.16c-0.29,0.11-0.56,0.26-0.8,0.45c-0.25,0.19-0.47,0.42-0.66,0.69c-0.19,0.27-0.33,0.55-0.42,0.86v4.63
		h-0.99v-7.56h0.9v1.71c0.31-0.55,0.75-1,1.33-1.33c0.57-0.34,1.2-0.51,1.88-0.51c0.42,0,0.77,0.08,1.06,0.23
		c0.29,0.15,0.52,0.37,0.7,0.65c0.17,0.28,0.3,0.62,0.38,1.03c0.08,0.41,0.12,0.86,0.12,1.35V59.13z"/>
	<path class="st2" d="M47.34,59.27c-0.55,0-1.06-0.1-1.52-0.31c-0.46-0.21-0.86-0.49-1.2-0.86c-0.34-0.36-0.6-0.78-0.79-1.25
		c-0.19-0.47-0.28-0.98-0.28-1.52c0-0.53,0.09-1.03,0.28-1.5c0.19-0.47,0.45-0.88,0.78-1.23c0.33-0.35,0.73-0.63,1.2-0.84
		s0.97-0.31,1.51-0.31c0.55,0,1.06,0.1,1.52,0.31c0.46,0.21,0.85,0.49,1.18,0.85c0.33,0.36,0.58,0.77,0.77,1.23
		c0.18,0.46,0.28,0.96,0.28,1.48c0,0.08,0,0.16,0,0.23s0,0.13-0.01,0.16h-6.47c0.03,0.41,0.12,0.78,0.28,1.12
		c0.16,0.34,0.36,0.64,0.62,0.89c0.25,0.25,0.54,0.45,0.86,0.59c0.32,0.14,0.67,0.21,1.04,0.21c0.24,0,0.48-0.03,0.73-0.1
		c0.24-0.07,0.46-0.16,0.67-0.28c0.2-0.12,0.39-0.26,0.55-0.43c0.16-0.17,0.29-0.36,0.38-0.56l0.86,0.23
		c-0.12,0.28-0.28,0.53-0.49,0.76c-0.21,0.23-0.46,0.42-0.74,0.59c-0.28,0.17-0.59,0.3-0.93,0.39
		C48.06,59.23,47.7,59.27,47.34,59.27z M50.12,54.95c-0.03-0.41-0.12-0.78-0.28-1.11c-0.16-0.33-0.36-0.62-0.61-0.86
		c-0.25-0.24-0.53-0.43-0.86-0.57c-0.32-0.13-0.67-0.2-1.04-0.2c-0.37,0-0.72,0.07-1.04,0.2c-0.33,0.14-0.62,0.32-0.86,0.57
		c-0.25,0.24-0.44,0.53-0.59,0.87c-0.15,0.34-0.24,0.71-0.27,1.1H50.12z"/>
	<path class="st2" d="M55.09,59.27c-0.59,0-1.17-0.1-1.73-0.29c-0.56-0.19-1.04-0.47-1.45-0.84l0.45-0.67
		c0.43,0.35,0.86,0.61,1.3,0.78c0.44,0.17,0.91,0.26,1.41,0.26c0.61,0,1.09-0.12,1.46-0.37s0.54-0.6,0.54-1.05
		c0-0.21-0.05-0.39-0.14-0.53c-0.1-0.14-0.24-0.26-0.43-0.37c-0.19-0.11-0.43-0.2-0.71-0.28c-0.29-0.08-0.62-0.17-0.99-0.25
		c-0.43-0.11-0.81-0.21-1.13-0.32c-0.32-0.11-0.58-0.23-0.79-0.36s-0.36-0.3-0.46-0.5c-0.1-0.2-0.15-0.45-0.15-0.75
		c0-0.38,0.07-0.71,0.23-1c0.15-0.29,0.35-0.53,0.61-0.72c0.26-0.19,0.56-0.33,0.9-0.43c0.34-0.1,0.71-0.14,1.09-0.14
		c0.58,0,1.11,0.09,1.58,0.28c0.47,0.19,0.86,0.44,1.15,0.75l-0.48,0.58c-0.28-0.29-0.62-0.51-1.02-0.65
		c-0.4-0.15-0.82-0.22-1.25-0.22c-0.26,0-0.5,0.03-0.73,0.08s-0.42,0.14-0.59,0.25c-0.17,0.12-0.3,0.26-0.4,0.44
		c-0.1,0.18-0.15,0.39-0.15,0.63c0,0.2,0.03,0.37,0.1,0.49c0.07,0.13,0.18,0.23,0.33,0.33c0.15,0.09,0.35,0.17,0.59,0.25
		c0.24,0.07,0.52,0.15,0.86,0.22c0.48,0.12,0.91,0.23,1.28,0.35c0.37,0.12,0.67,0.25,0.92,0.41c0.25,0.16,0.43,0.34,0.56,0.57
		c0.13,0.22,0.19,0.49,0.19,0.81c0,0.7-0.27,1.25-0.8,1.65C56.71,59.07,55.99,59.27,55.09,59.27z"/>
	<path class="st2" d="M62.16,59.27c-0.59,0-1.17-0.1-1.73-0.29c-0.56-0.19-1.04-0.47-1.45-0.84l0.45-0.67
		c0.43,0.35,0.86,0.61,1.3,0.78c0.44,0.17,0.91,0.26,1.41,0.26c0.61,0,1.09-0.12,1.46-0.37c0.36-0.25,0.54-0.6,0.54-1.05
		c0-0.21-0.05-0.39-0.14-0.53c-0.1-0.14-0.24-0.26-0.43-0.37c-0.19-0.11-0.43-0.2-0.71-0.28s-0.62-0.17-0.99-0.25
		c-0.43-0.11-0.81-0.21-1.13-0.32c-0.32-0.11-0.58-0.23-0.79-0.36s-0.36-0.3-0.46-0.5c-0.1-0.2-0.15-0.45-0.15-0.75
		c0-0.38,0.07-0.71,0.23-1c0.15-0.29,0.35-0.53,0.61-0.72c0.26-0.19,0.56-0.33,0.9-0.43c0.34-0.1,0.71-0.14,1.09-0.14
		c0.58,0,1.11,0.09,1.58,0.28c0.47,0.19,0.86,0.44,1.15,0.75l-0.48,0.58c-0.28-0.29-0.62-0.51-1.02-0.65
		c-0.4-0.15-0.82-0.22-1.25-0.22c-0.26,0-0.5,0.03-0.73,0.08c-0.22,0.05-0.42,0.14-0.59,0.25c-0.17,0.12-0.3,0.26-0.4,0.44
		c-0.1,0.18-0.15,0.39-0.15,0.63c0,0.2,0.03,0.37,0.1,0.49c0.07,0.13,0.18,0.23,0.33,0.33c0.15,0.09,0.35,0.17,0.59,0.25
		c0.24,0.07,0.52,0.15,0.86,0.22c0.48,0.12,0.91,0.23,1.28,0.35c0.37,0.12,0.67,0.25,0.92,0.41c0.25,0.16,0.43,0.34,0.56,0.57
		c0.13,0.22,0.19,0.49,0.19,0.81c0,0.7-0.27,1.25-0.8,1.65C63.77,59.07,63.06,59.27,62.16,59.27z"/>
	<path class="st2" d="M69.93,53.91c0-0.62,0.11-1.23,0.33-1.85c0.22-0.61,0.53-1.16,0.95-1.65c0.42-0.48,0.93-0.88,1.54-1.18
		c0.61-0.3,1.3-0.46,2.07-0.46c0.92,0,1.7,0.21,2.36,0.62c0.65,0.42,1.13,0.96,1.44,1.62l-0.8,0.49c-0.16-0.34-0.36-0.62-0.6-0.86
		c-0.24-0.23-0.49-0.42-0.76-0.56c-0.27-0.15-0.55-0.25-0.84-0.31c-0.29-0.06-0.58-0.09-0.86-0.09c-0.62,0-1.17,0.13-1.64,0.38
		c-0.47,0.25-0.87,0.58-1.2,0.99c-0.32,0.41-0.57,0.86-0.73,1.37c-0.16,0.51-0.25,1.02-0.25,1.54c0,0.57,0.1,1.12,0.3,1.64
		c0.2,0.52,0.47,0.98,0.81,1.38c0.34,0.4,0.75,0.72,1.22,0.96c0.47,0.24,0.98,0.36,1.53,0.36c0.29,0,0.59-0.04,0.89-0.11
		s0.6-0.19,0.88-0.35c0.29-0.16,0.55-0.36,0.79-0.59c0.24-0.24,0.44-0.52,0.61-0.86l0.84,0.43c-0.16,0.39-0.4,0.73-0.7,1.02
		c-0.3,0.29-0.63,0.54-1,0.75c-0.37,0.2-0.76,0.36-1.17,0.46c-0.41,0.11-0.81,0.16-1.21,0.16c-0.71,0-1.35-0.15-1.94-0.46
		c-0.59-0.31-1.1-0.71-1.52-1.21c-0.43-0.5-0.76-1.06-0.99-1.7C70.05,55.21,69.93,54.57,69.93,53.91z"/>
	<path class="st2" d="M83.62,59.27c-0.55,0-1.06-0.1-1.52-0.31c-0.46-0.21-0.86-0.49-1.2-0.86c-0.34-0.36-0.6-0.78-0.79-1.25
		c-0.19-0.47-0.28-0.98-0.28-1.52c0-0.53,0.09-1.03,0.28-1.5c0.19-0.47,0.45-0.88,0.78-1.23c0.33-0.35,0.73-0.63,1.2-0.84
		s0.97-0.31,1.51-0.31c0.55,0,1.06,0.1,1.52,0.31c0.46,0.21,0.85,0.49,1.18,0.85c0.33,0.36,0.58,0.77,0.77,1.23
		c0.18,0.46,0.28,0.96,0.28,1.48c0,0.08,0,0.16,0,0.23s0,0.13-0.01,0.16h-6.47c0.03,0.41,0.12,0.78,0.28,1.12s0.36,0.64,0.62,0.89
		c0.25,0.25,0.54,0.45,0.86,0.59c0.32,0.14,0.67,0.21,1.04,0.21c0.24,0,0.48-0.03,0.73-0.1c0.24-0.07,0.46-0.16,0.67-0.28
		c0.2-0.12,0.39-0.26,0.55-0.43c0.16-0.17,0.29-0.36,0.38-0.56l0.86,0.23c-0.12,0.28-0.28,0.53-0.49,0.76
		c-0.21,0.23-0.46,0.42-0.74,0.59c-0.28,0.17-0.59,0.3-0.93,0.39C84.34,59.23,83.98,59.27,83.62,59.27z M86.4,54.95
		c-0.03-0.41-0.12-0.78-0.28-1.11c-0.16-0.33-0.36-0.62-0.61-0.86c-0.25-0.24-0.53-0.43-0.86-0.57c-0.32-0.13-0.67-0.2-1.04-0.2
		c-0.37,0-0.72,0.07-1.04,0.2c-0.33,0.14-0.62,0.32-0.86,0.57c-0.25,0.24-0.44,0.53-0.59,0.87c-0.15,0.34-0.24,0.71-0.27,1.1H86.4z"
		/>
	<path class="st2" d="M95.22,59.13h-0.99v-4.22c0-0.9-0.13-1.55-0.4-1.96c-0.27-0.41-0.67-0.61-1.23-0.61
		c-0.29,0-0.58,0.05-0.87,0.16c-0.29,0.11-0.56,0.26-0.8,0.45c-0.25,0.19-0.47,0.42-0.66,0.69c-0.19,0.27-0.33,0.55-0.42,0.86v4.63
		h-0.99v-7.56h0.9v1.71c0.31-0.55,0.75-1,1.33-1.33c0.57-0.34,1.2-0.51,1.88-0.51c0.42,0,0.77,0.08,1.06,0.23
		c0.29,0.15,0.52,0.37,0.7,0.65c0.17,0.28,0.3,0.62,0.38,1.03c0.08,0.41,0.12,0.86,0.12,1.35V59.13z"/>
	<path class="st2" d="M100.87,58.77c-0.06,0.03-0.14,0.07-0.25,0.12c-0.11,0.05-0.24,0.1-0.38,0.15c-0.15,0.05-0.31,0.09-0.49,0.13
		c-0.18,0.04-0.38,0.06-0.58,0.06c-0.21,0-0.42-0.03-0.61-0.09c-0.19-0.06-0.36-0.15-0.51-0.27c-0.14-0.12-0.26-0.27-0.35-0.46
		c-0.09-0.18-0.13-0.4-0.13-0.64v-5.41h-1.04v-0.78h1.04v-2.55h0.99v2.55h1.74v0.78h-1.74v5.13c0.02,0.28,0.12,0.49,0.3,0.62
		c0.18,0.13,0.38,0.2,0.62,0.2c0.28,0,0.53-0.05,0.74-0.14s0.35-0.16,0.41-0.2L100.87,58.77z"/>
	<path class="st2" d="M105.18,59.27c-0.55,0-1.06-0.1-1.52-0.31c-0.46-0.21-0.86-0.49-1.2-0.86c-0.34-0.36-0.6-0.78-0.79-1.25
		c-0.19-0.47-0.28-0.98-0.28-1.52c0-0.53,0.09-1.03,0.28-1.5c0.19-0.47,0.45-0.88,0.78-1.23c0.33-0.35,0.73-0.63,1.2-0.84
		s0.97-0.31,1.51-0.31c0.55,0,1.06,0.1,1.52,0.31c0.46,0.21,0.85,0.49,1.18,0.85c0.33,0.36,0.58,0.77,0.77,1.23
		c0.18,0.46,0.28,0.96,0.28,1.48c0,0.08,0,0.16,0,0.23s0,0.13-0.01,0.16h-6.47c0.03,0.41,0.12,0.78,0.28,1.12
		c0.16,0.34,0.36,0.64,0.62,0.89c0.25,0.25,0.54,0.45,0.86,0.59c0.32,0.14,0.67,0.21,1.04,0.21c0.24,0,0.48-0.03,0.73-0.1
		c0.24-0.07,0.46-0.16,0.67-0.28c0.2-0.12,0.39-0.26,0.55-0.43c0.16-0.17,0.29-0.36,0.38-0.56l0.86,0.23
		c-0.12,0.28-0.28,0.53-0.49,0.76c-0.21,0.23-0.46,0.42-0.74,0.59c-0.28,0.17-0.59,0.3-0.93,0.39
		C105.9,59.23,105.55,59.27,105.18,59.27z M107.96,54.95c-0.03-0.41-0.12-0.78-0.28-1.11c-0.16-0.33-0.36-0.62-0.61-0.86
		c-0.25-0.24-0.53-0.43-0.86-0.57c-0.32-0.13-0.67-0.2-1.04-0.2c-0.37,0-0.72,0.07-1.04,0.2c-0.33,0.14-0.62,0.32-0.86,0.57
		c-0.25,0.24-0.44,0.53-0.59,0.87c-0.15,0.34-0.24,0.71-0.27,1.1H107.96z"/>
	<path class="st2" d="M114.2,52.44c-0.67,0.02-1.25,0.2-1.74,0.55c-0.49,0.35-0.84,0.83-1.04,1.44v4.7h-0.99v-7.56h0.93v1.81
		c0.28-0.58,0.66-1.03,1.13-1.36c0.47-0.33,0.98-0.49,1.52-0.49c0.08,0,0.14,0,0.19,0.01V52.44z"/>
</g>
<path id="Icon_awesome-basketball-ball" class="st0" d="M227.81,87.86c-2.86,0.4-5.56,1.59-7.79,3.43l4.93,4.93
	C226.78,93.81,227.78,90.88,227.81,87.86z M230.09,101.35l10.06-10.06c-2.62-2.16-5.87-3.42-9.27-3.58c0,3.88-1.32,7.65-3.74,10.69
	L230.09,101.35z M217.86,93.45c-1.84,2.23-3.02,4.92-3.43,7.79c3.02-0.04,5.95-1.04,8.36-2.85L217.86,93.45z M235.21,106.46
	c3.04-2.41,6.8-3.73,10.69-3.74c-0.16-3.39-1.41-6.65-3.58-9.27l-10.06,10.06L235.21,106.46L235.21,106.46z M230.09,105.68
	l-10.06,10.06c2.63,2.16,5.88,3.41,9.27,3.58c0.01-3.88,1.33-7.65,3.74-10.69L230.09,105.68z M242.32,113.57
	c1.84-2.23,3.02-4.93,3.43-7.79c-3.02,0.04-5.95,1.04-8.36,2.85L242.32,113.57z M224.97,100.56c-3.04,2.42-6.8,3.74-10.69,3.74
	c0.16,3.39,1.41,6.65,3.58,9.27l10.06-10.06L224.97,100.56z M232.36,119.17c2.86-0.4,5.56-1.59,7.79-3.43l-4.93-4.93
	C233.41,113.23,232.41,116.15,232.36,119.17L232.36,119.17z"/>
<g class="st1">
	<path class="st2" d="M189.29,141.26v-10.3h1.02v10.3H189.29z"/>
	<path class="st2" d="M199.04,141.26h-0.99v-4.22c0-0.9-0.13-1.55-0.4-1.96c-0.27-0.41-0.67-0.61-1.23-0.61
		c-0.29,0-0.58,0.05-0.87,0.16c-0.29,0.11-0.56,0.26-0.81,0.45c-0.25,0.19-0.47,0.42-0.66,0.69c-0.19,0.27-0.33,0.55-0.42,0.86v4.63
		h-0.99v-7.56h0.9v1.71c0.31-0.55,0.75-1,1.33-1.33c0.58-0.34,1.2-0.51,1.88-0.51c0.42,0,0.77,0.08,1.06,0.23
		c0.29,0.15,0.52,0.37,0.7,0.65c0.17,0.28,0.3,0.62,0.38,1.03c0.08,0.41,0.12,0.86,0.12,1.35V141.26z"/>
	<path class="st2" d="M204.24,141.4c-0.52,0-1-0.11-1.45-0.33c-0.44-0.22-0.83-0.51-1.15-0.86c-0.32-0.36-0.57-0.77-0.75-1.24
		c-0.18-0.47-0.27-0.96-0.27-1.47c0-0.53,0.09-1.04,0.26-1.52c0.17-0.48,0.41-0.9,0.72-1.25c0.3-0.36,0.67-0.64,1.09-0.85
		c0.42-0.21,0.88-0.31,1.38-0.31c0.64,0,1.2,0.17,1.7,0.5c0.49,0.33,0.88,0.74,1.16,1.21v-4.61h0.99v9.31
		c0,0.27,0.12,0.41,0.35,0.41v0.87c-0.15,0.03-0.26,0.04-0.35,0.04c-0.23,0-0.44-0.07-0.61-0.23c-0.17-0.15-0.26-0.33-0.26-0.54
		v-0.74c-0.3,0.49-0.71,0.88-1.22,1.18C205.33,141.26,204.79,141.4,204.24,141.4z M204.46,140.53c0.24,0,0.5-0.05,0.78-0.14
		c0.28-0.1,0.53-0.23,0.78-0.4c0.24-0.17,0.45-0.37,0.62-0.59c0.17-0.23,0.27-0.47,0.31-0.73v-2.33c-0.1-0.26-0.24-0.51-0.42-0.73
		c-0.18-0.23-0.39-0.43-0.63-0.6c-0.24-0.17-0.49-0.31-0.76-0.41c-0.27-0.1-0.54-0.15-0.8-0.15c-0.41,0-0.77,0.09-1.1,0.26
		c-0.33,0.17-0.61,0.4-0.85,0.69c-0.24,0.29-0.42,0.61-0.54,0.98c-0.13,0.37-0.19,0.75-0.19,1.13c0,0.41,0.07,0.79,0.22,1.16
		c0.15,0.37,0.34,0.69,0.59,0.96c0.25,0.28,0.55,0.5,0.89,0.66C203.69,140.45,204.06,140.53,204.46,140.53z"/>
	<path class="st2" d="M213.38,141.4c-0.55,0-1.05-0.1-1.51-0.31c-0.45-0.21-0.85-0.49-1.18-0.85s-0.59-0.77-0.78-1.25
		c-0.18-0.47-0.28-0.97-0.28-1.49c0-0.53,0.09-1.03,0.28-1.51c0.19-0.47,0.45-0.89,0.78-1.25s0.73-0.64,1.18-0.86
		c0.45-0.21,0.95-0.32,1.49-0.32c0.54,0,1.04,0.11,1.5,0.32c0.46,0.21,0.86,0.5,1.19,0.86s0.6,0.77,0.78,1.25
		c0.19,0.47,0.28,0.98,0.28,1.51c0,0.52-0.09,1.02-0.28,1.49c-0.18,0.47-0.44,0.89-0.77,1.25s-0.73,0.64-1.19,0.85
		C214.43,141.3,213.93,141.4,213.38,141.4z M210.64,137.51c0,0.43,0.07,0.82,0.22,1.18c0.15,0.36,0.34,0.68,0.59,0.96
		c0.25,0.28,0.54,0.49,0.87,0.65c0.33,0.15,0.69,0.23,1.07,0.23c0.38,0,0.73-0.08,1.07-0.24s0.63-0.38,0.88-0.65
		c0.25-0.28,0.45-0.6,0.59-0.96c0.15-0.37,0.22-0.76,0.22-1.19c0-0.42-0.07-0.81-0.22-1.18c-0.15-0.37-0.34-0.7-0.59-0.97
		c-0.25-0.28-0.54-0.49-0.88-0.65c-0.33-0.16-0.69-0.24-1.07-0.24c-0.38,0-0.73,0.08-1.06,0.24c-0.33,0.16-0.62,0.38-0.87,0.66
		c-0.25,0.28-0.45,0.61-0.6,0.98C210.71,136.69,210.64,137.09,210.64,137.51z"/>
	<path class="st2" d="M222.01,141.4c-0.55,0-1.05-0.1-1.51-0.31c-0.45-0.21-0.85-0.49-1.18-0.85s-0.59-0.77-0.78-1.25
		c-0.18-0.47-0.28-0.97-0.28-1.49c0-0.53,0.09-1.03,0.28-1.51c0.19-0.47,0.45-0.89,0.78-1.25s0.73-0.64,1.18-0.86
		c0.45-0.21,0.95-0.32,1.49-0.32c0.54,0,1.04,0.11,1.5,0.32c0.46,0.21,0.86,0.5,1.19,0.86s0.6,0.77,0.78,1.25
		c0.19,0.47,0.28,0.98,0.28,1.51c0,0.52-0.09,1.02-0.28,1.49c-0.18,0.47-0.44,0.89-0.77,1.25s-0.73,0.64-1.19,0.85
		C223.06,141.3,222.56,141.4,222.01,141.4z M219.27,137.51c0,0.43,0.07,0.82,0.22,1.18c0.15,0.36,0.34,0.68,0.59,0.96
		c0.25,0.28,0.54,0.49,0.87,0.65c0.33,0.15,0.69,0.23,1.07,0.23c0.38,0,0.73-0.08,1.07-0.24s0.63-0.38,0.88-0.65s0.45-0.6,0.59-0.96
		s0.22-0.76,0.22-1.19c0-0.42-0.07-0.81-0.22-1.18s-0.34-0.7-0.59-0.97c-0.25-0.28-0.54-0.49-0.88-0.65
		c-0.33-0.16-0.69-0.24-1.07-0.24c-0.38,0-0.73,0.08-1.06,0.24c-0.33,0.16-0.62,0.38-0.87,0.66c-0.25,0.28-0.45,0.61-0.6,0.98
		C219.34,136.69,219.27,137.09,219.27,137.51z"/>
	<path class="st2" d="M231.18,134.57c-0.67,0.02-1.25,0.2-1.74,0.55c-0.49,0.35-0.84,0.83-1.04,1.44v4.7h-0.99v-7.56h0.93v1.81
		c0.28-0.58,0.66-1.03,1.13-1.36c0.47-0.33,0.98-0.49,1.52-0.49c0.08,0,0.14,0,0.19,0.01V134.57z"/>
	<path class="st2" d="M235.38,136.04c0-0.62,0.11-1.23,0.33-1.85c0.22-0.61,0.53-1.16,0.95-1.65c0.41-0.48,0.93-0.88,1.54-1.18
		c0.61-0.3,1.3-0.46,2.07-0.46c0.92,0,1.7,0.21,2.36,0.62c0.65,0.42,1.13,0.96,1.44,1.62l-0.8,0.49c-0.16-0.34-0.37-0.62-0.6-0.86
		c-0.24-0.23-0.49-0.42-0.76-0.56c-0.27-0.15-0.55-0.25-0.84-0.31c-0.29-0.06-0.58-0.09-0.86-0.09c-0.62,0-1.16,0.13-1.64,0.38
		c-0.47,0.25-0.87,0.58-1.2,0.99c-0.32,0.41-0.57,0.86-0.73,1.37c-0.16,0.51-0.25,1.02-0.25,1.54c0,0.57,0.1,1.12,0.3,1.64
		c0.2,0.52,0.47,0.98,0.81,1.38c0.34,0.4,0.75,0.72,1.22,0.96c0.47,0.24,0.98,0.36,1.53,0.36c0.29,0,0.59-0.04,0.89-0.11
		c0.3-0.07,0.6-0.19,0.88-0.35c0.29-0.16,0.55-0.36,0.79-0.59c0.24-0.24,0.44-0.52,0.61-0.86l0.84,0.43
		c-0.16,0.39-0.4,0.73-0.7,1.02c-0.3,0.29-0.63,0.54-1,0.75c-0.37,0.2-0.76,0.36-1.17,0.46c-0.41,0.11-0.81,0.16-1.21,0.16
		c-0.71,0-1.35-0.15-1.94-0.46c-0.59-0.31-1.1-0.71-1.52-1.21c-0.43-0.5-0.76-1.06-0.99-1.7
		C235.49,137.34,235.38,136.69,235.38,136.04z"/>
	<path class="st2" d="M249.02,141.4c-0.55,0-1.05-0.1-1.51-0.31c-0.45-0.21-0.85-0.49-1.18-0.85s-0.59-0.77-0.78-1.25
		c-0.18-0.47-0.28-0.97-0.28-1.49c0-0.53,0.09-1.03,0.28-1.51c0.19-0.47,0.45-0.89,0.78-1.25s0.73-0.64,1.18-0.86
		c0.45-0.21,0.95-0.32,1.49-0.32c0.54,0,1.04,0.11,1.5,0.32c0.46,0.21,0.86,0.5,1.19,0.86s0.6,0.77,0.78,1.25
		c0.19,0.47,0.28,0.98,0.28,1.51c0,0.52-0.09,1.02-0.28,1.49c-0.18,0.47-0.44,0.89-0.77,1.25s-0.73,0.64-1.19,0.85
		C250.08,141.3,249.57,141.4,249.02,141.4z M246.28,137.51c0,0.43,0.07,0.82,0.22,1.18c0.15,0.36,0.34,0.68,0.59,0.96
		c0.25,0.28,0.54,0.49,0.87,0.65c0.33,0.15,0.69,0.23,1.07,0.23c0.38,0,0.73-0.08,1.07-0.24s0.63-0.38,0.88-0.65
		c0.25-0.28,0.45-0.6,0.59-0.96c0.15-0.37,0.22-0.76,0.22-1.19c0-0.42-0.07-0.81-0.22-1.18c-0.15-0.37-0.34-0.7-0.59-0.97
		c-0.25-0.28-0.54-0.49-0.88-0.65c-0.33-0.16-0.69-0.24-1.07-0.24c-0.38,0-0.73,0.08-1.06,0.24c-0.33,0.16-0.62,0.38-0.87,0.66
		c-0.25,0.28-0.45,0.61-0.6,0.98C246.35,136.69,246.28,137.09,246.28,137.51z"/>
	<path class="st2" d="M256.79,141.4c-0.82,0-1.43-0.27-1.83-0.82c-0.4-0.55-0.6-1.36-0.6-2.44v-4.44h0.99v4.26
		c0,1.71,0.58,2.57,1.75,2.57c0.29,0,0.58-0.05,0.86-0.14c0.28-0.1,0.54-0.24,0.78-0.42c0.24-0.18,0.45-0.4,0.64-0.65
		c0.19-0.25,0.34-0.54,0.46-0.86v-4.76h0.99v6.28c0,0.27,0.12,0.41,0.35,0.41v0.87c-0.12,0.02-0.21,0.03-0.28,0.03
		c-0.07,0-0.12,0-0.15,0c-0.23-0.01-0.42-0.09-0.57-0.25c-0.15-0.15-0.22-0.36-0.22-0.62v-0.87c-0.33,0.59-0.78,1.05-1.34,1.37
		C258.03,141.24,257.43,141.4,256.79,141.4z"/>
	<path class="st2" d="M266.81,134.57c-0.67,0.02-1.25,0.2-1.74,0.55c-0.49,0.35-0.84,0.83-1.04,1.44v4.7h-0.99v-7.56h0.93v1.81
		c0.28-0.58,0.66-1.03,1.13-1.36c0.47-0.33,0.98-0.49,1.52-0.49c0.08,0,0.14,0,0.19,0.01V134.57z"/>
	<path class="st2" d="M271.76,140.89c-0.06,0.03-0.14,0.07-0.25,0.12s-0.24,0.1-0.38,0.15s-0.31,0.09-0.49,0.13
		s-0.38,0.06-0.58,0.06c-0.21,0-0.42-0.03-0.61-0.09c-0.19-0.06-0.36-0.15-0.51-0.27c-0.15-0.12-0.26-0.27-0.35-0.46
		c-0.09-0.18-0.13-0.4-0.13-0.64v-5.41h-1.04v-0.78h1.04v-2.55h0.99v2.55h1.74v0.78h-1.74v5.13c0.02,0.28,0.12,0.49,0.3,0.62
		c0.18,0.13,0.38,0.2,0.62,0.2c0.28,0,0.53-0.05,0.74-0.14c0.21-0.09,0.35-0.16,0.41-0.2L271.76,140.89z"/>
</g>
</svg>
